Nunito-300.ufo
<glyph name="percent" format="1">
  <advance width="2059"/>
  <unicode hex="0025"/>
  <outline>
    <contour>
      <point x="600" y="-71" type="curve" smooth="yes"/>
      <point x="618" y="-71"/>
      <point x="635" y="-64"/>
      <point x="647" y="-43" type="curve" smooth="yes"/>
      <point x="1440" y="1348" type="line" smooth="yes"/>
      <point x="1446" y="1358"/>
      <point x="1448" y="1369"/>
      <point x="1448" y="1379" type="curve" smooth="yes"/>
      <point x="1448" y="1411"/>
      <point x="1423" y="1436"/>
      <point x="1395" y="1436" type="curve" smooth="yes"/>
      <point x="1376" y="1436"/>
      <point x="1354" y="1425"/>
      <point x="1339" y="1398" type="curve" smooth="yes"/>
      <point x="548" y="7" type="line" smooth="yes"/>
      <point x="543" y="-1"/>
      <point x="540" y="-10"/>
      <point x="540" y="-18" type="curve" smooth="yes"/>
      <point x="540" y="-48"/>
      <point x="569" y="-71"/>
    </contour>
    <contour>
      <point x="558" y="740" type="curve" smooth="yes"/>
      <point x="410" y="740"/>
      <point x="358" y="884"/>
      <point x="358" y="1020" type="curve" smooth="yes"/>
      <point x="358" y="1155"/>
      <point x="410" y="1299"/>
      <point x="558" y="1299" type="curve" smooth="yes"/>
      <point x="707" y="1299"/>
      <point x="759" y="1155"/>
      <point x="759" y="1020" type="curve" smooth="yes"/>
      <point x="759" y="884"/>
      <point x="707" y="740"/>
    </contour>
    <contour>
      <point x="558" y="638" type="curve" smooth="yes"/>
      <point x="769" y="638"/>
      <point x="893" y="813"/>
      <point x="893" y="1020" type="curve" smooth="yes"/>
      <point x="893" y="1213"/>
      <point x="783" y="1402"/>
      <point x="558" y="1402" type="curve" smooth="yes"/>
      <point x="347" y="1402"/>
      <point x="225" y="1227"/>
      <point x="225" y="1020" type="curve" smooth="yes"/>
      <point x="225" y="809"/>
      <point x="346" y="638"/>
    </contour>
    <contour>
      <point x="1500" y="72" type="curve" smooth="yes"/>
      <point x="1350" y="72"/>
      <point x="1300" y="216"/>
      <point x="1300" y="352" type="curve" smooth="yes"/>
      <point x="1300" y="487"/>
      <point x="1350" y="631"/>
      <point x="1500" y="631" type="curve" smooth="yes"/>
      <point x="1649" y="631"/>
      <point x="1700" y="487"/>
      <point x="1700" y="352" type="curve" smooth="yes"/>
      <point x="1700" y="216"/>
      <point x="1649" y="72"/>
    </contour>
    <contour>
      <point x="1500" y="-31" type="curve" smooth="yes"/>
      <point x="1712" y="-31"/>
      <point x="1834" y="146"/>
      <point x="1834" y="352" type="curve" smooth="yes"/>
      <point x="1834" y="545"/>
      <point x="1726" y="733"/>
      <point x="1500" y="733" type="curve" smooth="yes"/>
      <point x="1291" y="733"/>
      <point x="1166" y="558"/>
      <point x="1166" y="352" type="curve" smooth="yes"/>
      <point x="1166" y="144"/>
      <point x="1288" y="-31"/>
    </contour>
  </outline>
</glyph>
<glyph name="parenright" format="1">
  <advance width="590"/>
  <unicode hex="0029"/>
  <outline>
    <contour>
      <point x="168" y="-219" type="curve" smooth="yes"/>
      <point x="191" y="-219"/>
      <point x="215" y="-206"/>
      <point x="229" y="-174" type="curve"/>
      <point x="339" y="85"/>
      <point x="437" y="356"/>
      <point x="437" y="634" type="curve" smooth="yes"/>
      <point x="437" y="913"/>
      <point x="338" y="1187"/>
      <point x="229" y="1450" type="curve"/>
      <point x="214" y="1480"/>
      <point x="192" y="1492"/>
      <point x="169" y="1492" type="curve" smooth="yes"/>
      <point x="137" y="1492"/>
      <point x="106" y="1468"/>
      <point x="106" y="1433" type="curve" smooth="yes"/>
      <point x="106" y="1425"/>
      <point x="108" y="1417"/>
      <point x="112" y="1409" type="curve" smooth="yes"/>
      <point x="208" y="1147"/>
      <point x="266" y="884"/>
      <point x="266" y="635" type="curve" smooth="yes"/>
      <point x="266" y="386"/>
      <point x="209" y="125"/>
      <point x="113" y="-136" type="curve" smooth="yes"/>
      <point x="109" y="-145"/>
      <point x="107" y="-154"/>
      <point x="107" y="-162" type="curve" smooth="yes"/>
      <point x="107" y="-196"/>
      <point x="137" y="-219"/>
    </contour>
  </outline>
</glyph>
<glyph name="asterisk" format="1">
  <advance width="1108"/>
  <unicode hex="002A"/>
  <outline>
    <contour>
      <point x="435" y="766" type="curve" smooth="yes"/>
      <point x="552" y="979" type="line"/>
      <point x="671" y="766" type="line" smooth="yes"/>
      <point x="715" y="686"/>
      <point x="815" y="764"/>
      <point x="780" y="828" type="curve" smooth="yes"/>
      <point x="653" y="1034" type="line"/>
      <point x="900" y="1025" type="line" smooth="yes"/>
      <point x="986" y="1025"/>
      <point x="986" y="1147"/>
      <point x="900" y="1147" type="curve" smooth="yes"/>
      <point x="655" y="1138" type="line"/>
      <point x="783" y="1344" type="line"/>
      <point x="818" y="1406"/>
      <point x="727" y="1488"/>
      <point x="672" y="1405" type="curve" smooth="yes"/>
      <point x="552" y="1188" type="line"/>
      <point x="433" y="1405" type="line" smooth="yes"/>
      <point x="387" y="1485"/>
      <point x="283" y="1409"/>
      <point x="323" y="1344" type="curve" smooth="yes"/>
      <point x="450" y="1138" type="line"/>
      <point x="208" y="1147" type="line" smooth="yes"/>
      <point x="122" y="1147"/>
      <point x="123" y="1025"/>
      <point x="208" y="1025" type="curve" smooth="yes"/>
      <point x="453" y="1034" type="line"/>
      <point x="325" y="828" type="line" smooth="yes"/>
      <point x="285" y="766"/>
      <point x="389" y="687"/>
    </contour>
  </outline>
</glyph>
<glyph name="plus" format="1">
  <advance width="1341"/>
  <unicode hex="002B"/>
  <outline>
    <contour>
      <point x="671" y="4" type="curve" smooth="yes"/>
      <point x="707" y="4"/>
      <point x="739" y="33"/>
      <point x="739" y="70" type="curve" smooth="yes"/>
      <point x="739" y="429" type="line"/>
      <point x="1115" y="429" type="line" smooth="yes"/>
      <point x="1153" y="429"/>
      <point x="1183" y="461"/>
      <point x="1183" y="496" type="curve" smooth="yes"/>
      <point x="1183" y="534"/>
      <point x="1153" y="562"/>
      <point x="1115" y="562" type="curve" smooth="yes"/>
      <point x="739" y="562" type="line"/>
      <point x="739" y="925" type="line" smooth="yes"/>
      <point x="739" y="963"/>
      <point x="707" y="992"/>
      <point x="671" y="992" type="curve" smooth="yes"/>
      <point x="631" y="992"/>
      <point x="601" y="964"/>
      <point x="601" y="925" type="curve" smooth="yes"/>
      <point x="601" y="562" type="line"/>
      <point x="226" y="562" type="line" smooth="yes"/>
      <point x="188" y="562"/>
      <point x="158" y="534"/>
      <point x="158" y="496" type="curve" smooth="yes"/>
      <point x="158" y="461"/>
      <point x="188" y="429"/>
      <point x="226" y="429" type="curve" smooth="yes"/>
      <point x="601" y="429" type="line"/>
      <point x="601" y="70" type="line" smooth="yes"/>
      <point x="601" y="32"/>
      <point x="631" y="4"/>
    </contour>
  </outline>
</glyph>
<glyph name="comma" format="1">
  <advance width="583"/>
  <unicode hex="002C"/>
  <outline>
    <contour>
      <point x="157" y="-341" type="curve"/>
      <point x="198" y="-341" type="line"/>
      <point x="227" y="-342"/>
      <point x="243" y="-330"/>
      <point x="254" y="-298" type="curve" smooth="yes"/>
      <point x="414" y="172" type="line" smooth="yes"/>
      <point x="419" y="186"/>
      <point x="422" y="225"/>
      <point x="380" y="228" type="curve"/>
      <point x="290" y="228" type="line"/>
      <point x="258" y="227"/>
      <point x="225" y="219"/>
      <point x="217" y="172" type="curve" smooth="yes"/>
      <point x="133" y="-298" type="line" smooth="yes"/>
      <point x="131" y="-310"/>
      <point x="129" y="-340"/>
    </contour>
  </outline>
</glyph>
<glyph name="period" format="1">
  <advance width="583"/>
  <unicode hex="002E"/>
  <outline>
    <contour>
      <point x="291" y="-1" type="curve" smooth="yes"/>
      <point x="359" y="-1"/>
      <point x="397" y="47"/>
      <point x="397" y="96" type="curve" smooth="yes"/>
      <point x="397" y="143"/>
      <point x="359" y="191"/>
      <point x="291" y="191" type="curve" smooth="yes"/>
      <point x="223" y="191"/>
      <point x="185" y="143"/>
      <point x="185" y="96" type="curve" smooth="yes"/>
      <point x="185" y="47"/>
      <point x="223" y="-1"/>
    </contour>
  </outline>
</glyph>
<glyph name="slash" format="1">
  <advance width="739"/>
  <unicode hex="002F"/>
  <outline>
    <contour>
      <point x="124" y="-176" type="curve" smooth="yes"/>
      <point x="152" y="-176"/>
      <point x="179" y="-161"/>
      <point x="191" y="-127" type="curve"/>
      <point x="678" y="1337" type="line" smooth="yes"/>
      <point x="681" y="1348"/>
      <point x="683" y="1358"/>
      <point x="683" y="1365" type="curve" smooth="yes"/>
      <point x="683" y="1405"/>
      <point x="648" y="1429"/>
      <point x="613" y="1429" type="curve" smooth="yes"/>
      <point x="583" y="1429"/>
      <point x="555" y="1414"/>
      <point x="544" y="1380" type="curve" smooth="yes"/>
      <point x="61" y="-85" type="line" smooth="yes"/>
      <point x="58" y="-96"/>
      <point x="56" y="-105"/>
      <point x="56" y="-112" type="curve" smooth="yes"/>
      <point x="56" y="-152"/>
      <point x="89" y="-176"/>
    </contour>
  </outline>
</glyph>
<glyph name="one" format="1">
  <advance width="1158"/>
  <unicode hex="0031"/>
  <outline>
    <contour>
      <point x="649" y="0" type="curve" smooth="yes"/>
      <point x="693" y="0"/>
      <point x="736" y="26"/>
      <point x="736" y="81" type="curve" smooth="yes"/>
      <point x="736" y="1341" type="line" smooth="yes"/>
      <point x="736" y="1399"/>
      <point x="696" y="1426"/>
      <point x="654" y="1426" type="curve"/>
      <point x="638" y="1426"/>
      <point x="618" y="1421"/>
      <point x="605" y="1412" type="curve" smooth="yes"/>
      <point x="270" y="1199" type="line" smooth="yes"/>
      <point x="249" y="1184"/>
      <point x="240" y="1168"/>
      <point x="240" y="1149" type="curve" smooth="yes"/>
      <point x="240" y="1114"/>
      <point x="270" y="1083"/>
      <point x="306" y="1083" type="curve" smooth="yes"/>
      <point x="318" y="1083"/>
      <point x="330" y="1087"/>
      <point x="341" y="1094" type="curve" smooth="yes"/>
      <point x="564" y="1239" type="line"/>
      <point x="564" y="81" type="line" smooth="yes"/>
      <point x="564" y="26"/>
      <point x="607" y="0"/>
    </contour>
  </outline>
</glyph>
<glyph name="five" format="1">
  <advance width="1158"/>
  <unicode hex="0035"/>
  <outline>
    <contour>
      <point x="602" y="-22" type="curve" smooth="yes"/>
      <point x="888" y="-22"/>
      <point x="1078" y="159"/>
      <point x="1078" y="437" type="curve" smooth="yes"/>
      <point x="1078" y="700"/>
      <point x="916" y="893"/>
      <point x="642" y="893" type="curve" smooth="yes"/>
      <point x="422" y="893"/>
      <point x="322" y="763"/>
      <point x="322" y="763" type="curve"/>
      <point x="324" y="1278" type="line"/>
      <point x="925" y="1278" type="line" smooth="yes"/>
      <point x="971" y="1278"/>
      <point x="993" y="1308"/>
      <point x="993" y="1343" type="curve" smooth="yes"/>
      <point x="993" y="1378"/>
      <point x="971" y="1409"/>
      <point x="925" y="1409" type="curve" smooth="yes"/>
      <point x="267" y="1409" type="line" smooth="yes"/>
      <point x="212" y="1409"/>
      <point x="186" y="1378"/>
      <point x="186" y="1333" type="curve" smooth="yes"/>
      <point x="186" y="664" type="line" smooth="yes"/>
      <point x="186" y="614"/>
      <point x="303" y="582"/>
      <point x="328" y="617" type="curve" smooth="yes"/>
      <point x="388" y="703"/>
      <point x="516" y="759"/>
      <point x="625" y="759" type="curve" smooth="yes"/>
      <point x="799" y="759"/>
      <point x="913" y="627"/>
      <point x="913" y="441" type="curve" smooth="yes"/>
      <point x="913" y="243"/>
      <point x="810" y="117"/>
      <point x="598" y="117" type="curve" smooth="yes"/>
      <point x="457" y="117"/>
      <point x="350" y="176"/>
      <point x="275" y="245" type="curve" smooth="yes"/>
      <point x="223" y="294"/>
      <point x="126" y="194"/>
      <point x="184" y="141" type="curve" smooth="yes"/>
      <point x="308" y="29"/>
      <point x="432" y="-22"/>
    </contour>
  </outline>
</glyph>
<glyph name="six" format="1">
  <advance width="1158"/>
  <unicode hex="0036"/>
  <outline>
    <contour>
      <point x="603" y="-22" type="curve" smooth="yes"/>
      <point x="893" y="-22"/>
      <point x="1070" y="182"/>
      <point x="1070" y="449" type="curve" smooth="yes"/>
      <point x="1070" y="714"/>
      <point x="905" y="902"/>
      <point x="627" y="903" type="curve" smooth="yes"/>
      <point x="430" y="904"/>
      <point x="296" y="776"/>
      <point x="271" y="669" type="curve" smooth="yes"/>
      <point x="271" y="1027"/>
      <point x="325" y="1297"/>
      <point x="658" y="1297" type="curve" smooth="yes"/>
      <point x="731" y="1297"/>
      <point x="819" y="1279"/>
      <point x="909" y="1236" type="curve" smooth="yes"/>
      <point x="983" y="1200"/>
      <point x="1036" y="1325"/>
      <point x="966" y="1361" type="curve" smooth="yes"/>
      <point x="878" y="1405"/>
      <point x="772" y="1436"/>
      <point x="661" y="1436" type="curve" smooth="yes"/>
      <point x="150" y="1436"/>
      <point x="93" y="954"/>
      <point x="93" y="622" type="curve" smooth="yes"/>
      <point x="93" y="295"/>
      <point x="202" y="-22"/>
    </contour>
    <contour>
      <point x="593" y="114" type="curve" smooth="yes"/>
      <point x="383" y="114"/>
      <point x="286" y="278"/>
      <point x="286" y="446" type="curve" smooth="yes"/>
      <point x="286" y="642"/>
      <point x="402" y="779"/>
      <point x="614" y="779" type="curve" smooth="yes"/>
      <point x="814" y="779"/>
      <point x="901" y="625"/>
      <point x="901" y="448" type="curve" smooth="yes"/>
      <point x="901" y="259"/>
      <point x="798" y="114"/>
    </contour>
  </outline>
</glyph>
<glyph name="seven" format="1">
  <advance width="1158"/>
  <unicode hex="0037"/>
  <outline>
    <contour>
      <point x="419" y="0" type="curve" smooth="yes"/>
      <point x="449" y="0"/>
      <point x="479" y="14"/>
      <point x="493" y="48" type="curve" smooth="yes"/>
      <point x="1013" y="1258" type="line" smooth="yes"/>
      <point x="1024" y="1280"/>
      <point x="1028" y="1308"/>
      <point x="1028" y="1330" type="curve" smooth="yes"/>
      <point x="1028" y="1381"/>
      <point x="992" y="1414"/>
      <point x="928" y="1414" type="curve" smooth="yes"/>
      <point x="164" y="1414" type="line" smooth="yes"/>
      <point x="115" y="1414"/>
      <point x="92" y="1380"/>
      <point x="92" y="1344" type="curve" smooth="yes"/>
      <point x="92" y="1309"/>
      <point x="115" y="1276"/>
      <point x="164" y="1276" type="curve" smooth="yes"/>
      <point x="842" y="1276" type="line"/>
      <point x="339" y="117" type="line" smooth="yes"/>
      <point x="333" y="104"/>
      <point x="331" y="92"/>
      <point x="331" y="82" type="curve"/>
      <point x="331" y="33"/>
      <point x="373" y="0"/>
    </contour>
  </outline>
</glyph>
<glyph name="colon" format="1">
  <advance width="583"/>
  <unicode hex="003A"/>
  <outline>
    <contour>
      <point x="291" y="-1" type="curve" smooth="yes"/>
      <point x="359" y="-1"/>
      <point x="397" y="47"/>
      <point x="397" y="96" type="curve" smooth="yes"/>
      <point x="397" y="143"/>
      <point x="359" y="192"/>
      <point x="291" y="192" type="curve" smooth="yes"/>
      <point x="223" y="192"/>
      <point x="185" y="143"/>
      <point x="185" y="96" type="curve" smooth="yes"/>
      <point x="185" y="47"/>
      <point x="223" y="-1"/>
    </contour>
    <contour>
      <point x="291" y="806" type="curve" smooth="yes"/>
      <point x="359" y="806"/>
      <point x="397" y="852"/>
      <point x="397" y="902" type="curve" smooth="yes"/>
      <point x="397" y="952"/>
      <point x="359" y="999"/>
      <point x="291" y="999" type="curve" smooth="yes"/>
      <point x="223" y="999"/>
      <point x="185" y="952"/>
      <point x="185" y="902" type="curve" smooth="yes"/>
      <point x="185" y="852"/>
      <point x="223" y="806"/>
    </contour>
  </outline>
</glyph>
<glyph name="equal" format="1">
  <advance width="1341"/>
  <unicode hex="003D"/>
  <outline>
    <contour>
      <point x="227" y="234" type="curve" smooth="yes"/>
      <point x="1115" y="234" type="line" smooth="yes"/>
      <point x="1153" y="234"/>
      <point x="1182" y="264"/>
      <point x="1182" y="299" type="curve" smooth="yes"/>
      <point x="1182" y="337"/>
      <point x="1153" y="367"/>
      <point x="1115" y="367" type="curve" smooth="yes"/>
      <point x="226" y="367" type="line" smooth="yes"/>
      <point x="188" y="367"/>
      <point x="158" y="338"/>
      <point x="158" y="299" type="curve" smooth="yes"/>
      <point x="158" y="264"/>
      <point x="188" y="234"/>
    </contour>
    <contour>
      <point x="227" y="625" type="curve" smooth="yes"/>
      <point x="1115" y="625" type="line" smooth="yes"/>
      <point x="1153" y="625"/>
      <point x="1182" y="656"/>
      <point x="1182" y="691" type="curve" smooth="yes"/>
      <point x="1182" y="729"/>
      <point x="1153" y="759"/>
      <point x="1115" y="759" type="curve" smooth="yes"/>
      <point x="226" y="759" type="line" smooth="yes"/>
      <point x="188" y="759"/>
      <point x="158" y="730"/>
      <point x="158" y="691" type="curve" smooth="yes"/>
      <point x="158" y="656"/>
      <point x="188" y="625"/>
    </contour>
  </outline>
</glyph>
<glyph name="question" format="1">
  <advance width="1031"/>
  <unicode hex="003F"/>
  <outline>
    <contour>
      <point x="342" y="439" type="line"/>
      <point x="342" y="348"/>
      <point x="496" y="343"/>
      <point x="496" y="433" type="curve" smooth="yes"/>
      <point x="494" y="544" type="line" smooth="yes"/>
      <point x="494" y="706"/>
      <point x="887" y="796"/>
      <point x="887" y="1086" type="curve" smooth="yes"/>
      <point x="887" y="1339"/>
      <point x="705" y="1435"/>
      <point x="488" y="1435" type="curve" smooth="yes"/>
      <point x="396" y="1435"/>
      <point x="297" y="1419"/>
      <point x="206" y="1395" type="curve" smooth="yes"/>
      <point x="162" y="1384"/>
      <point x="144" y="1353"/>
      <point x="144" y="1322" type="curve" smooth="yes"/>
      <point x="144" y="1285"/>
      <point x="167" y="1249"/>
      <point x="207" y="1249" type="curve" smooth="yes"/>
      <point x="245" y="1248"/>
      <point x="406" y="1286"/>
      <point x="449" y="1286" type="curve" smooth="yes"/>
      <point x="582" y="1286"/>
      <point x="713" y="1255"/>
      <point x="713" y="1075" type="curve" smooth="yes"/>
      <point x="713" y="828"/>
      <point x="351" y="770"/>
      <point x="343" y="571" type="curve" smooth="yes"/>
    </contour>
    <contour>
      <point x="424" y="-10" type="curve" smooth="yes"/>
      <point x="492" y="-10"/>
      <point x="531" y="37"/>
      <point x="531" y="88" type="curve" smooth="yes"/>
      <point x="531" y="136"/>
      <point x="492" y="182"/>
      <point x="424" y="182" type="curve" smooth="yes"/>
      <point x="355" y="182"/>
      <point x="318" y="136"/>
      <point x="318" y="88" type="curve" smooth="yes"/>
      <point x="318" y="37"/>
      <point x="355" y="-10"/>
    </contour>
  </outline>
</glyph>
<glyph name="at" format="1">
  <advance width="1638"/>
  <unicode hex="0040"/>
  <outline>
    <contour>
      <point x="807" y="-25" type="curve" smooth="yes"/>
      <point x="911" y="-25"/>
      <point x="1019" y="-8"/>
      <point x="1130" y="26" type="curve" smooth="yes"/>
      <point x="1154" y="33"/>
      <point x="1165" y="54"/>
      <point x="1165" y="75" type="curve" smooth="yes"/>
      <point x="1165" y="102"/>
      <point x="1148" y="126"/>
      <point x="1113" y="126" type="curve" smooth="yes"/>
      <point x="1104" y="126"/>
      <point x="1095" y="125"/>
      <point x="1087" y="122" type="curve" smooth="yes"/>
      <point x="998" y="95"/>
      <point x="910" y="81"/>
      <point x="825" y="81" type="curve" smooth="yes"/>
      <point x="484" y="81"/>
      <point x="191" y="299"/>
      <point x="191" y="728" type="curve" smooth="yes"/>
      <point x="191" y="1156"/>
      <point x="561" y="1400"/>
      <point x="894" y="1400" type="curve" smooth="yes"/>
      <point x="1169" y="1400"/>
      <point x="1417" y="1235"/>
      <point x="1417" y="870" type="curve" smooth="yes"/>
      <point x="1417" y="650"/>
      <point x="1282" y="425"/>
      <point x="1124" y="425" type="curve" smooth="yes"/>
      <point x="1080" y="425"/>
      <point x="1067" y="444"/>
      <point x="1067" y="476" type="curve" smooth="yes"/>
      <point x="1067" y="504"/>
      <point x="1078" y="541"/>
      <point x="1092" y="585" type="curve" smooth="yes"/>
      <point x="1242" y="1063" type="line"/>
      <point x="1245" y="1071"/>
      <point x="1246" y="1079"/>
      <point x="1246" y="1088" type="curve" smooth="yes"/>
      <point x="1246" y="1124"/>
      <point x="1216" y="1143"/>
      <point x="1184" y="1143" type="curve" smooth="yes"/>
      <point x="1153" y="1143"/>
      <point x="1119" y="1126"/>
      <point x="1109" y="1091" type="curve" smooth="yes"/>
      <point x="1100" y="1061" type="line"/>
      <point x="1059" y="1148"/>
      <point x="965" y="1193"/>
      <point x="871" y="1193" type="curve" smooth="yes"/>
      <point x="573" y="1193"/>
      <point x="389" y="892"/>
      <point x="389" y="621" type="curve" smooth="yes"/>
      <point x="389" y="450"/>
      <point x="495" y="311"/>
      <point x="675" y="311" type="curve" smooth="yes"/>
      <point x="763" y="311"/>
      <point x="859" y="348"/>
      <point x="922" y="412" type="curve"/>
      <point x="947" y="341"/>
      <point x="1022" y="308"/>
      <point x="1094" y="308" type="curve" smooth="yes"/>
      <point x="1306" y="308"/>
      <point x="1549" y="548"/>
      <point x="1549" y="871" type="curve" smooth="yes"/>
      <point x="1549" y="1310"/>
      <point x="1231" y="1512"/>
      <point x="891" y="1512" type="curve" smooth="yes"/>
      <point x="491" y="1512"/>
      <point x="58" y="1235"/>
      <point x="58" y="740" type="curve" smooth="yes"/>
      <point x="58" y="260"/>
      <point x="380" y="-25"/>
    </contour>
    <contour>
      <point x="704" y="431" type="curve" smooth="yes"/>
      <point x="606" y="431"/>
      <point x="545" y="509"/>
      <point x="541" y="607" type="curve" smooth="yes"/>
      <point x="533" y="818"/>
      <point x="673" y="1068"/>
      <point x="878" y="1068" type="curve" smooth="yes"/>
      <point x="993" y="1068"/>
      <point x="1060" y="929"/>
      <point x="1060" y="929" type="curve" smooth="yes"/>
      <point x="970" y="624" type="line"/>
      <point x="935" y="505"/>
      <point x="803" y="431"/>
    </contour>
  </outline>
</glyph>
<glyph name="B" format="1">
  <advance width="1289"/>
  <unicode hex="0042"/>
  <outline>
    <contour>
      <point x="648" y="1438" type="move" name="top"/>
    </contour>
    <contour>
      <point x="265" y="0" type="curve" smooth="yes"/>
      <point x="731" y="0" type="line" smooth="yes"/>
      <point x="1064" y="0"/>
      <point x="1205" y="187"/>
      <point x="1205" y="383" type="curve" smooth="yes"/>
      <point x="1205" y="598"/>
      <point x="1063" y="721"/>
      <point x="848" y="742" type="curve"/>
      <point x="848" y="746" type="line"/>
      <point x="1044" y="766"/>
      <point x="1146" y="912"/>
      <point x="1146" y="1067" type="curve" smooth="yes"/>
      <point x="1146" y="1286"/>
      <point x="1004" y="1426"/>
      <point x="653" y="1426" type="curve" smooth="yes"/>
      <point x="265" y="1426" type="line" smooth="yes"/>
      <point x="218" y="1426"/>
      <point x="178" y="1389"/>
      <point x="178" y="1342" type="curve" smooth="yes"/>
      <point x="178" y="83" type="line" smooth="yes"/>
      <point x="178" y="36"/>
      <point x="218" y="0"/>
    </contour>
    <contour>
      <point x="350" y="135" type="line"/>
      <point x="350" y="668" type="line"/>
      <point x="620" y="668" type="line" smooth="yes"/>
      <point x="884" y="668"/>
      <point x="1023" y="607"/>
      <point x="1023" y="405" type="curve" smooth="yes"/>
      <point x="1023" y="192"/>
      <point x="914" y="135"/>
      <point x="691" y="135" type="curve" smooth="yes"/>
    </contour>
    <contour>
      <point x="350" y="802" type="line"/>
      <point x="350" y="1292" type="line"/>
      <point x="653" y="1292" type="line" smooth="yes"/>
      <point x="821" y="1292"/>
      <point x="977" y="1259"/>
      <point x="977" y="1062" type="curve" smooth="yes"/>
      <point x="977" y="878"/>
      <point x="864" y="802"/>
      <point x="635" y="802" type="curve" smooth="yes"/>
    </contour>
  </outline>
</glyph>
<glyph name="E" format="1">
  <advance width="1233"/>
  <unicode hex="0045"/>
  <outline>
    <contour>
      <point x="644" y="1438" type="move" name="top"/>
    </contour>
    <contour>
      <point x="813" y="9" type="move" name="ogonek"/>
    </contour>
    <contour>
      <point x="264" y="0" type="curve" smooth="yes"/>
      <point x="1034" y="0" type="line" smooth="yes"/>
      <point x="1083" y="0"/>
      <point x="1106" y="33"/>
      <point x="1106" y="70" type="curve" smooth="yes"/>
      <point x="1106" y="105"/>
      <point x="1083" y="138"/>
      <point x="1034" y="138" type="curve" smooth="yes"/>
      <point x="353" y="138" type="line"/>
      <point x="353" y="666" type="line"/>
      <point x="974" y="666" type="line" smooth="yes"/>
      <point x="1023" y="666"/>
      <point x="1047" y="698"/>
      <point x="1047" y="734" type="curve" smooth="yes"/>
      <point x="1047" y="769"/>
      <point x="1025" y="802"/>
      <point x="974" y="802" type="curve" smooth="yes"/>
      <point x="353" y="802" type="line"/>
      <point x="353" y="1287" type="line"/>
      <point x="1006" y="1287" type="line" smooth="yes"/>
      <point x="1054" y="1287"/>
      <point x="1078" y="1320"/>
      <point x="1078" y="1357" type="curve" smooth="yes"/>
      <point x="1078" y="1392"/>
      <point x="1054" y="1426"/>
      <point x="1006" y="1426" type="curve" smooth="yes"/>
      <point x="259" y="1426" type="line" smooth="yes"/>
      <point x="212" y="1426"/>
      <point x="178" y="1383"/>
      <point x="178" y="1341" type="curve" smooth="yes"/>
      <point x="178" y="84" type="line" smooth="yes"/>
      <point x="178" y="40"/>
      <point x="221" y="0"/>
    </contour>
  </outline>
</glyph>
<glyph name="F" format="1">
  <advance width="1141"/>
  <unicode hex="0046"/>
  <outline>
    <contour>
      <point x="266" y="0" type="curve" smooth="yes"/>
      <point x="309" y="0"/>
      <point x="353" y="26"/>
      <point x="353" y="82" type="curve" smooth="yes"/>
      <point x="353" y="671" type="line"/>
      <point x="940" y="671" type="line" smooth="yes"/>
      <point x="988" y="671"/>
      <point x="1013" y="705"/>
      <point x="1013" y="741" type="curve" smooth="yes"/>
      <point x="1013" y="777"/>
      <point x="988" y="808"/>
      <point x="940" y="808" type="curve" smooth="yes"/>
      <point x="353" y="808" type="line"/>
      <point x="353" y="1287" type="line"/>
      <point x="966" y="1287" type="line" smooth="yes"/>
      <point x="1014" y="1287"/>
      <point x="1038" y="1320"/>
      <point x="1038" y="1357" type="curve" smooth="yes"/>
      <point x="1038" y="1392"/>
      <point x="1014" y="1426"/>
      <point x="966" y="1426" type="curve" smooth="yes"/>
      <point x="260" y="1426" type="line" smooth="yes"/>
      <point x="216" y="1426"/>
      <point x="178" y="1392"/>
      <point x="178" y="1342" type="curve" smooth="yes"/>
      <point x="178" y="82" type="line" smooth="yes"/>
      <point x="178" y="27"/>
      <point x="221" y="0"/>
    </contour>
  </outline>
</glyph>
<glyph name="G" format="1">
  <advance width="1446"/>
  <unicode hex="0047"/>
  <outline>
    <contour>
      <point x="864" y="1426" type="move" name="top"/>
    </contour>
    <contour>
      <point x="833" y="0" type="move" name="bot"/>
    </contour>
    <contour>
      <point x="797" y="-22" type="curve" smooth="yes"/>
      <point x="966" y="-22"/>
      <point x="1139" y="11"/>
      <point x="1259" y="55" type="curve" smooth="yes"/>
      <point x="1294" y="68"/>
      <point x="1324" y="104"/>
      <point x="1324" y="152" type="curve" smooth="yes"/>
      <point x="1324" y="664" type="line" smooth="yes"/>
      <point x="1324" y="710"/>
      <point x="1297" y="742"/>
      <point x="1251" y="742" type="curve" smooth="yes"/>
      <point x="866" y="742" type="line" smooth="yes"/>
      <point x="822" y="742"/>
      <point x="800" y="703"/>
      <point x="800" y="673" type="curve" smooth="yes"/>
      <point x="800" y="643"/>
      <point x="823" y="607"/>
      <point x="866" y="607" type="curve" smooth="yes"/>
      <point x="1151" y="607" type="line"/>
      <point x="1151" y="165" type="line"/>
      <point x="1054" y="138"/>
      <point x="921" y="117"/>
      <point x="816" y="117" type="curve" smooth="yes"/>
      <point x="457" y="117"/>
      <point x="313" y="379"/>
      <point x="313" y="708" type="curve" smooth="yes"/>
      <point x="313" y="1054"/>
      <point x="485" y="1297"/>
      <point x="840" y="1297" type="curve" smooth="yes"/>
      <point x="958" y="1297"/>
      <point x="1078" y="1268"/>
      <point x="1192" y="1234" type="curve"/>
      <point x="1195" y="1233"/>
      <point x="1208" y="1232"/>
      <point x="1208" y="1232" type="curve" smooth="yes"/>
      <point x="1246" y="1232"/>
      <point x="1270" y="1269"/>
      <point x="1270" y="1305" type="curve" smooth="yes"/>
      <point x="1270" y="1328"/>
      <point x="1259" y="1352"/>
      <point x="1232" y="1363" type="curve" smooth="yes"/>
      <point x="1117" y="1411"/>
      <point x="978" y="1436"/>
      <point x="833" y="1436" type="curve" smooth="yes"/>
      <point x="359" y="1436"/>
      <point x="129" y="1091"/>
      <point x="129" y="711" type="curve" smooth="yes"/>
      <point x="129" y="220"/>
      <point x="418" y="-22"/>
    </contour>
  </outline>
</glyph>
<glyph name="J" format="1">
  <advance width="1001"/>
  <unicode hex="004A"/>
  <outline>
    <contour>
      <point x="771" y="1438" type="move" name="top"/>
    </contour>
    <contour>
      <point x="419" y="-22" type="curve" smooth="yes"/>
      <point x="642" y="-22"/>
      <point x="859" y="103"/>
      <point x="859" y="441" type="curve" smooth="yes"/>
      <point x="859" y="1344" type="line" smooth="yes"/>
      <point x="859" y="1399"/>
      <point x="816" y="1426"/>
      <point x="772" y="1426" type="curve" smooth="yes"/>
      <point x="728" y="1426"/>
      <point x="684" y="1399"/>
      <point x="684" y="1344" type="curve" smooth="yes"/>
      <point x="684" y="456" type="line" smooth="yes"/>
      <point x="684" y="222"/>
      <point x="591" y="123"/>
      <point x="423" y="123" type="curve" smooth="yes"/>
      <point x="326" y="123"/>
      <point x="253" y="164"/>
      <point x="212" y="197" type="curve" smooth="yes"/>
      <point x="186" y="218"/>
      <point x="163" y="226"/>
      <point x="144" y="226" type="curve" smooth="yes"/>
      <point x="103" y="226"/>
      <point x="79" y="188"/>
      <point x="79" y="150" type="curve" smooth="yes"/>
      <point x="79" y="145"/>
      <point x="79" y="139"/>
      <point x="80" y="136" type="curve"/>
      <point x="83" y="120"/>
      <point x="89" y="107"/>
      <point x="99" y="96" type="curve" smooth="yes"/>
      <point x="142" y="52"/>
      <point x="256" y="-22"/>
    </contour>
  </outline>
</glyph>
<glyph name="Q" format="1">
  <advance width="1597"/>
  <unicode hex="0051"/>
  <outline>
    <contour>
      <point x="799" y="-22" type="curve" smooth="yes"/>
      <point x="859" y="-22"/>
      <point x="911" y="-15"/>
      <point x="980" y="0" type="curve"/>
      <point x="979" y="0"/>
      <point x="1453" y="0"/>
      <point x="1449" y="0" type="curve" smooth="yes"/>
      <point x="1496" y="1"/>
      <point x="1520" y="34"/>
      <point x="1520" y="71" type="curve" smooth="yes"/>
      <point x="1520" y="106"/>
      <point x="1496" y="140"/>
      <point x="1449" y="140" type="curve" smooth="yes"/>
      <point x="1221" y="140" type="line"/>
      <point x="1373" y="288"/>
      <point x="1466" y="489"/>
      <point x="1466" y="703" type="curve" smooth="yes"/>
      <point x="1466" y="1131"/>
      <point x="1232" y="1437"/>
      <point x="799" y="1437" type="curve" smooth="yes"/>
      <point x="361" y="1437"/>
      <point x="129" y="1128"/>
      <point x="129" y="701" type="curve" smooth="yes"/>
      <point x="129" y="264"/>
      <point x="376" y="-22"/>
    </contour>
    <contour>
      <point x="799" y="117" type="curve" smooth="yes"/>
      <point x="444" y="117"/>
      <point x="317" y="429"/>
      <point x="317" y="701" type="curve" smooth="yes"/>
      <point x="317" y="1010"/>
      <point x="459" y="1294"/>
      <point x="799" y="1294" type="curve" smooth="yes"/>
      <point x="1142" y="1294"/>
      <point x="1281" y="999"/>
      <point x="1281" y="701" type="curve" smooth="yes"/>
      <point x="1281" y="409"/>
      <point x="1140" y="117"/>
    </contour>
  </outline>
</glyph>
<glyph name="W" format="1">
  <advance width="2128"/>
  <unicode hex="0057"/>
  <outline>
    <contour>
      <point x="1058" y="1438" type="move" name="top"/>
    </contour>
    <contour>
      <point x="413" y="111" type="line"/>
      <point x="433" y="35"/>
      <point x="650" y="41"/>
      <point x="674" y="111" type="curve" smooth="yes"/>
      <point x="1060" y="1227" type="line"/>
      <point x="1060" y="1425" type="line"/>
      <point x="1006" y="1425"/>
      <point x="954" y="1365"/>
      <point x="932" y="1298" type="curve" smooth="yes"/>
      <point x="551" y="183" type="line"/>
      <point x="238" y="1369" type="line" smooth="yes"/>
      <point x="212" y="1470"/>
      <point x="45" y="1441"/>
      <point x="78" y="1321" type="curve" smooth="yes"/>
    </contour>
    <contour>
      <point x="1708" y="111" type="curve" smooth="yes"/>
      <point x="2043" y="1321" type="line" smooth="yes"/>
      <point x="2075" y="1441"/>
      <point x="1909" y="1470"/>
      <point x="1882" y="1369" type="curve" smooth="yes"/>
      <point x="1569" y="183" type="line"/>
      <point x="1189" y="1298" type="line" smooth="yes"/>
      <point x="1166" y="1365"/>
      <point x="1114" y="1425"/>
      <point x="1060" y="1425" type="curve"/>
      <point x="1060" y="1227" type="line"/>
      <point x="1447" y="111" type="line" smooth="yes"/>
      <point x="1470" y="41"/>
      <point x="1687" y="35"/>
    </contour>
  </outline>
</glyph>
<glyph name="bracketleft" format="1">
  <advance width="608"/>
  <unicode hex="005B"/>
  <outline>
    <contour>
      <point x="254" y="-199" type="curve" smooth="yes"/>
      <point x="435" y="-199" type="line"/>
      <point x="476" y="-199"/>
      <point x="497" y="-168"/>
      <point x="497" y="-137" type="curve" smooth="yes"/>
      <point x="497" y="-107"/>
      <point x="478" y="-77"/>
      <point x="435" y="-77" type="curve" smooth="yes"/>
      <point x="334" y="-77" type="line"/>
      <point x="334" y="1304" type="line"/>
      <point x="435" y="1304" type="line" smooth="yes"/>
      <point x="476" y="1304"/>
      <point x="496" y="1335"/>
      <point x="496" y="1365" type="curve" smooth="yes"/>
      <point x="496" y="1396"/>
      <point x="478" y="1426"/>
      <point x="435" y="1426" type="curve" smooth="yes"/>
      <point x="254" y="1426" type="line" smooth="yes"/>
      <point x="208" y="1426"/>
      <point x="173" y="1390"/>
      <point x="173" y="1347" type="curve" smooth="yes"/>
      <point x="173" y="-120" type="line" smooth="yes"/>
      <point x="173" y="-164"/>
      <point x="208" y="-199"/>
    </contour>
  </outline>
</glyph>
<glyph name="backslash" format="1">
  <advance width="586"/>
  <unicode hex="005C"/>
  <outline>
    <contour>
      <point x="539" y="-107" type="curve" smooth="yes"/>
      <point x="573" y="-107"/>
      <point x="606" y="-83"/>
      <point x="606" y="-42" type="curve" smooth="yes"/>
      <point x="606" y="-33"/>
      <point x="605" y="-24"/>
      <point x="602" y="-15" type="curve"/>
      <point x="118" y="1449" type="line"/>
      <point x="107" y="1484"/>
      <point x="78" y="1499"/>
      <point x="50" y="1499" type="curve" smooth="yes"/>
      <point x="14" y="1499"/>
      <point x="-20" y="1475"/>
      <point x="-20" y="1434" type="curve" smooth="yes"/>
      <point x="-20" y="1428"/>
      <point x="-18" y="1419"/>
      <point x="-15" y="1408" type="curve" smooth="yes"/>
      <point x="472" y="-57" type="line" smooth="yes"/>
      <point x="483" y="-92"/>
      <point x="510" y="-107"/>
    </contour>
  </outline>
</glyph>
<glyph name="b" format="1">
  <advance width="1180"/>
  <unicode hex="0062"/>
  <outline>
    <contour>
      <point x="665" y="-20" type="curve" smooth="yes"/>
      <point x="956" y="-20"/>
      <point x="1093" y="225"/>
      <point x="1093" y="502" type="curve" smooth="yes"/>
      <point x="1093" y="776"/>
      <point x="938" y="1013"/>
      <point x="649" y="1013" type="curve" smooth="yes"/>
      <point x="502" y="1013"/>
      <point x="374" y="941"/>
      <point x="316" y="812" type="curve"/>
      <point x="316" y="1352" type="line" smooth="yes"/>
      <point x="316" y="1400"/>
      <point x="277" y="1424"/>
      <point x="237" y="1424" type="curve" smooth="yes"/>
      <point x="198" y="1424"/>
      <point x="159" y="1400"/>
      <point x="159" y="1352" type="curve" smooth="yes"/>
      <point x="159" y="74" type="line" smooth="yes"/>
      <point x="159" y="26"/>
      <point x="197" y="3"/>
      <point x="236" y="3" type="curve" smooth="yes"/>
      <point x="296" y="3"/>
      <point x="316" y="38"/>
      <point x="316" y="75" type="curve" smooth="yes"/>
      <point x="316" y="184" type="line"/>
      <point x="382" y="46"/>
      <point x="515" y="-20"/>
    </contour>
    <contour>
      <point x="645" y="88" type="curve" smooth="yes"/>
      <point x="393" y="88"/>
      <point x="317" y="279"/>
      <point x="317" y="501" type="curve" smooth="yes"/>
      <point x="317" y="702"/>
      <point x="406" y="905"/>
      <point x="632" y="905" type="curve" smooth="yes"/>
      <point x="860" y="905"/>
      <point x="936" y="686"/>
      <point x="936" y="496" type="curve" smooth="yes"/>
      <point x="936" y="314"/>
      <point x="870" y="91"/>
    </contour>
  </outline>
</glyph>
<glyph name="d" format="1">
  <advance width="1180"/>
  <unicode hex="0064"/>
  <outline>
    <contour>
      <point x="909" y="989" type="move" name="caron.alt"/>
    </contour>
    <contour>
      <point x="886" y="1196" type="move" name="mid"/>
    </contour>
    <contour>
      <point x="515" y="-20" type="curve" smooth="yes"/>
      <point x="665" y="-20"/>
      <point x="798" y="46"/>
      <point x="864" y="184" type="curve"/>
      <point x="864" y="75" type="line" smooth="yes"/>
      <point x="864" y="38"/>
      <point x="884" y="3"/>
      <point x="943" y="3" type="curve" smooth="yes"/>
      <point x="983" y="3"/>
      <point x="1021" y="26"/>
      <point x="1021" y="74" type="curve" smooth="yes"/>
      <point x="1021" y="1352" type="line" smooth="yes"/>
      <point x="1021" y="1400"/>
      <point x="982" y="1424"/>
      <point x="942" y="1424" type="curve" smooth="yes"/>
      <point x="903" y="1424"/>
      <point x="864" y="1400"/>
      <point x="864" y="1352" type="curve" smooth="yes"/>
      <point x="864" y="812" type="line"/>
      <point x="806" y="941"/>
      <point x="678" y="1013"/>
      <point x="531" y="1013" type="curve" smooth="yes"/>
      <point x="242" y="1013"/>
      <point x="86" y="776"/>
      <point x="86" y="502" type="curve" smooth="yes"/>
      <point x="86" y="225"/>
      <point x="224" y="-20"/>
    </contour>
    <contour>
      <point x="535" y="88" type="curve" smooth="yes"/>
      <point x="310" y="91"/>
      <point x="243" y="314"/>
      <point x="243" y="496" type="curve" smooth="yes"/>
      <point x="243" y="686"/>
      <point x="320" y="905"/>
      <point x="548" y="905" type="curve" smooth="yes"/>
      <point x="774" y="905"/>
      <point x="863" y="702"/>
      <point x="863" y="501" type="curve" smooth="yes"/>
      <point x="863" y="279"/>
      <point x="786" y="88"/>
    </contour>
  </outline>
</glyph>
<glyph name="i" format="1">
  <advance width="473"/>
  <unicode hex="0069"/>
  <outline>
    <contour>
      <point x="234" y="0" type="curve" smooth="yes"/>
      <point x="273" y="0"/>
      <point x="315" y="28"/>
      <point x="315" y="80" type="curve" smooth="yes"/>
      <point x="315" y="912" type="line" smooth="yes"/>
      <point x="315" y="964"/>
      <point x="275" y="991"/>
      <point x="237" y="991" type="curve" smooth="yes"/>
      <point x="198" y="991"/>
      <point x="158" y="964"/>
      <point x="158" y="912" type="curve" smooth="yes"/>
      <point x="158" y="80" type="line" smooth="yes"/>
      <point x="158" y="24"/>
      <point x="195" y="0"/>
    </contour>
    <contour>
      <point x="235" y="1235" type="curve" smooth="yes"/>
      <point x="300" y="1235"/>
      <point x="343" y="1276"/>
      <point x="343" y="1336" type="curve" smooth="yes"/>
      <point x="343" y="1396"/>
      <point x="301" y="1437"/>
      <point x="236" y="1437" type="curve" smooth="yes"/>
      <point x="172" y="1437"/>
      <point x="128" y="1396"/>
      <point x="128" y="1336" type="curve" smooth="yes"/>
      <point x="128" y="1276"/>
      <point x="171" y="1235"/>
    </contour>
  </outline>
</glyph>
<glyph name="j" format="1">
  <advance width="474"/>
  <unicode hex="006A"/>
  <outline>
    <contour>
      <point x="0" y="-377" type="curve" smooth="yes"/>
      <point x="304" y="-377"/>
      <point x="318" y="-282"/>
      <point x="318" y="-34" type="curve" smooth="yes"/>
      <point x="318" y="912" type="line" smooth="yes"/>
      <point x="318" y="964"/>
      <point x="278" y="991"/>
      <point x="240" y="991" type="curve" smooth="yes"/>
      <point x="200" y="991"/>
      <point x="160" y="964"/>
      <point x="160" y="912" type="curve" smooth="yes"/>
      <point x="160" y="-73" type="line" smooth="yes"/>
      <point x="160" y="-238"/>
      <point x="141" y="-253"/>
      <point x="1" y="-253" type="curve" smooth="yes"/>
      <point x="-76" y="-253"/>
      <point x="-77" y="-377"/>
    </contour>
    <contour>
      <point x="235" y="1235" type="curve" smooth="yes"/>
      <point x="300" y="1235"/>
      <point x="343" y="1276"/>
      <point x="343" y="1336" type="curve" smooth="yes"/>
      <point x="343" y="1396"/>
      <point x="301" y="1437"/>
      <point x="236" y="1437" type="curve" smooth="yes"/>
      <point x="172" y="1437"/>
      <point x="128" y="1396"/>
      <point x="128" y="1336" type="curve" smooth="yes"/>
      <point x="128" y="1276"/>
      <point x="171" y="1235"/>
    </contour>
  </outline>
</glyph>
<glyph name="k" format="1">
  <advance width="981"/>
  <unicode hex="006B"/>
  <outline>
    <contour>
      <point x="517" y="0" type="move" name="bot"/>
    </contour>
    <contour>
      <point x="793" y="26" type="line"/>
      <point x="859" y="-45"/>
      <point x="961" y="52"/>
      <point x="898" y="118" type="curve" smooth="yes"/>
      <point x="486" y="554" type="line"/>
      <point x="870" y="891" type="line" smooth="yes"/>
      <point x="937" y="950"/>
      <point x="842" y="1043"/>
      <point x="782" y="991" type="curve" smooth="yes"/>
      <point x="316" y="574" type="line"/>
      <point x="316" y="537" type="line"/>
    </contour>
    <contour>
      <point x="235" y="0" type="curve" smooth="yes"/>
      <point x="275" y="0"/>
      <point x="316" y="28"/>
      <point x="316" y="80" type="curve" smooth="yes"/>
      <point x="316" y="1346" type="line" smooth="yes"/>
      <point x="316" y="1398"/>
      <point x="276" y="1425"/>
      <point x="238" y="1425" type="curve" smooth="yes"/>
      <point x="199" y="1425"/>
      <point x="158" y="1398"/>
      <point x="158" y="1346" type="curve" smooth="yes"/>
      <point x="158" y="80" type="line" smooth="yes"/>
      <point x="158" y="24"/>
      <point x="197" y="0"/>
    </contour>
  </outline>
</glyph>
<glyph name="l" format="1">
  <advance width="473"/>
  <unicode hex="006C"/>
  <outline>
    <contour>
      <point x="291" y="1426" type="move" name="top"/>
    </contour>
    <contour>
      <point x="234" y="0" type="move" name="bot"/>
    </contour>
    <contour>
      <point x="234" y="0" type="curve" smooth="yes"/>
      <point x="273" y="0"/>
      <point x="315" y="28"/>
      <point x="315" y="80" type="curve" smooth="yes"/>
      <point x="315" y="1346" type="line" smooth="yes"/>
      <point x="315" y="1398"/>
      <point x="275" y="1425"/>
      <point x="237" y="1425" type="curve" smooth="yes"/>
      <point x="198" y="1425"/>
      <point x="158" y="1398"/>
      <point x="158" y="1346" type="curve" smooth="yes"/>
      <point x="158" y="80" type="line" smooth="yes"/>
      <point x="158" y="24"/>
      <point x="195" y="0"/>
    </contour>
  </outline>
</glyph>
<glyph name="m" format="1">
  <advance width="1837"/>
  <unicode hex="006D"/>
  <outline>
    <contour>
      <point x="956" y="989" type="move" name="top"/>
    </contour>
    <contour>
      <point x="236" y="0" type="curve" smooth="yes"/>
      <point x="277" y="0"/>
      <point x="317" y="23"/>
      <point x="317" y="74" type="curve" smooth="yes"/>
      <point x="317" y="576" type="line" smooth="yes"/>
      <point x="317" y="791"/>
      <point x="439" y="906"/>
      <point x="619" y="906" type="curve" smooth="yes"/>
      <point x="761" y="906"/>
      <point x="846" y="816"/>
      <point x="846" y="605" type="curve" smooth="yes"/>
      <point x="846" y="75" type="line" smooth="yes"/>
      <point x="846" y="24"/>
      <point x="884" y="0"/>
      <point x="924" y="0" type="curve" smooth="yes"/>
      <point x="963" y="0"/>
      <point x="1003" y="24"/>
      <point x="1003" y="75" type="curve" smooth="yes"/>
      <point x="1003" y="581" type="line" smooth="yes"/>
      <point x="1003" y="812"/>
      <point x="1146" y="906"/>
      <point x="1304" y="906" type="curve" smooth="yes"/>
      <point x="1450" y="906"/>
      <point x="1533" y="817"/>
      <point x="1533" y="642" type="curve" smooth="yes"/>
      <point x="1533" y="74" type="line" smooth="yes"/>
      <point x="1533" y="23"/>
      <point x="1571" y="0"/>
      <point x="1611" y="0" type="curve" smooth="yes"/>
      <point x="1650" y="0"/>
      <point x="1690" y="23"/>
      <point x="1690" y="74" type="curve" smooth="yes"/>
      <point x="1690" y="633" type="line" smooth="yes"/>
      <point x="1690" y="906"/>
      <point x="1522" y="1013"/>
      <point x="1334" y="1013" type="curve" smooth="yes"/>
      <point x="1155" y="1013"/>
      <point x="1025" y="937"/>
      <point x="970" y="774" type="curve"/>
      <point x="927" y="939"/>
      <point x="799" y="1013"/>
      <point x="642" y="1013" type="curve" smooth="yes"/>
      <point x="492" y="1013"/>
      <point x="369" y="938"/>
      <point x="317" y="815" type="curve"/>
      <point x="317" y="922" type="line" smooth="yes"/>
      <point x="317" y="968"/>
      <point x="276" y="991"/>
      <point x="238" y="991" type="curve" smooth="yes"/>
      <point x="199" y="991"/>
      <point x="159" y="966"/>
      <point x="159" y="919" type="curve" smooth="yes"/>
      <point x="159" y="74" type="line" smooth="yes"/>
      <point x="159" y="23"/>
      <point x="197" y="0"/>
    </contour>
  </outline>
</glyph>
<glyph name="p" format="1">
  <advance width="1180"/>
  <unicode hex="0070"/>
  <outline>
    <contour>
      <point x="237" y="-379" type="curve" smooth="yes"/>
      <point x="277" y="-379"/>
      <point x="316" y="-354"/>
      <point x="316" y="-306" type="curve" smooth="yes"/>
      <point x="316" y="180" type="line"/>
      <point x="374" y="51"/>
      <point x="502" y="-20"/>
      <point x="649" y="-20" type="curve" smooth="yes"/>
      <point x="938" y="-20"/>
      <point x="1093" y="217"/>
      <point x="1093" y="491" type="curve" smooth="yes"/>
      <point x="1093" y="768"/>
      <point x="956" y="1013"/>
      <point x="665" y="1013" type="curve" smooth="yes"/>
      <point x="515" y="1013"/>
      <point x="382" y="946"/>
      <point x="316" y="809" type="curve"/>
      <point x="316" y="918" type="line" smooth="yes"/>
      <point x="316" y="954"/>
      <point x="296" y="990"/>
      <point x="236" y="990" type="curve" smooth="yes"/>
      <point x="197" y="990"/>
      <point x="159" y="966"/>
      <point x="159" y="918" type="curve" smooth="yes"/>
      <point x="159" y="-306" type="line" smooth="yes"/>
      <point x="159" y="-354"/>
      <point x="198" y="-379"/>
    </contour>
    <contour>
      <point x="632" y="88" type="curve" smooth="yes"/>
      <point x="406" y="88"/>
      <point x="317" y="291"/>
      <point x="317" y="492" type="curve" smooth="yes"/>
      <point x="317" y="714"/>
      <point x="393" y="905"/>
      <point x="645" y="905" type="curve" smooth="yes"/>
      <point x="870" y="902"/>
      <point x="936" y="678"/>
      <point x="936" y="497" type="curve" smooth="yes"/>
      <point x="936" y="307"/>
      <point x="860" y="88"/>
    </contour>
  </outline>
</glyph>
<glyph name="t" format="1">
  <advance width="704"/>
  <unicode hex="0074"/>
  <outline>
    <contour>
      <point x="438" y="9" type="move" name="bot"/>
    </contour>
    <contour>
      <point x="466" y="-17" type="curve" smooth="yes"/>
      <point x="527" y="-17"/>
      <point x="582" y="-15"/>
      <point x="610" y="-10" type="curve" smooth="yes"/>
      <point x="683" y="2"/>
      <point x="674" y="113"/>
      <point x="590" y="109" type="curve" smooth="yes"/>
      <point x="526" y="106" type="line" smooth="yes"/>
      <point x="434" y="103"/>
      <point x="386" y="147"/>
      <point x="386" y="306" type="curve" smooth="yes"/>
      <point x="386" y="877" type="line"/>
      <point x="575" y="877" type="line" smooth="yes"/>
      <point x="618" y="877"/>
      <point x="634" y="897"/>
      <point x="634" y="928" type="curve" smooth="yes"/>
      <point x="634" y="958"/>
      <point x="618" y="981"/>
      <point x="575" y="981" type="curve" smooth="yes"/>
      <point x="386" y="981" type="line"/>
      <point x="386" y="1275" type="line" smooth="yes"/>
      <point x="386" y="1319"/>
      <point x="355" y="1340"/>
      <point x="322" y="1340" type="curve" smooth="yes"/>
      <point x="292" y="1340"/>
      <point x="250" y="1308"/>
      <point x="248" y="1273" type="curve" smooth="yes"/>
      <point x="229" y="981" type="line"/>
      <point x="100" y="981" type="line" smooth="yes"/>
      <point x="57" y="981"/>
      <point x="39" y="959"/>
      <point x="39" y="928" type="curve" smooth="yes"/>
      <point x="39" y="898"/>
      <point x="57" y="877"/>
      <point x="100" y="877" type="curve" smooth="yes"/>
      <point x="229" y="877" type="line"/>
      <point x="229" y="289" type="line" smooth="yes"/>
      <point x="229" y="58"/>
      <point x="335" y="-17"/>
    </contour>
  </outline>
</glyph>
<glyph name="u" format="1">
  <advance width="1151"/>
  <unicode hex="0075"/>
  <outline>
    <contour>
      <point x="567" y="1001" type="move" name="top"/>
    </contour>
    <contour>
      <point x="910" y="19" type="move" name="ogonek"/>
    </contour>
    <contour>
      <point x="508" y="-20" type="curve" smooth="yes"/>
      <point x="657" y="-20"/>
      <point x="787" y="49"/>
      <point x="835" y="180" type="curve"/>
      <point x="835" y="72" type="line" smooth="yes"/>
      <point x="835" y="24"/>
      <point x="874" y="0"/>
      <point x="912" y="0" type="curve" smooth="yes"/>
      <point x="951" y="0"/>
      <point x="992" y="23"/>
      <point x="992" y="74" type="curve" smooth="yes"/>
      <point x="992" y="917" type="line" smooth="yes"/>
      <point x="992" y="967"/>
      <point x="954" y="991"/>
      <point x="914" y="991" type="curve" smooth="yes"/>
      <point x="875" y="991"/>
      <point x="835" y="965"/>
      <point x="835" y="917" type="curve" smooth="yes"/>
      <point x="835" y="393" type="line" smooth="yes"/>
      <point x="821" y="195"/>
      <point x="698" y="88"/>
      <point x="541" y="88" type="curve" smooth="yes"/>
      <point x="382" y="88"/>
      <point x="304" y="186"/>
      <point x="304" y="367" type="curve" smooth="yes"/>
      <point x="304" y="917" type="line" smooth="yes"/>
      <point x="304" y="967"/>
      <point x="264" y="991"/>
      <point x="225" y="991" type="curve" smooth="yes"/>
      <point x="186" y="991"/>
      <point x="147" y="967"/>
      <point x="147" y="917" type="curve" smooth="yes"/>
      <point x="147" y="369" type="line" smooth="yes"/>
      <point x="147" y="96"/>
      <point x="294" y="-20"/>
    </contour>
  </outline>
</glyph>
<glyph name="w" format="1">
  <advance width="1699"/>
  <unicode hex="0077"/>
  <outline>
    <contour>
      <point x="858" y="1001" type="move" name="top"/>
    </contour>
    <contour>
      <point x="477" y="0" type="curve" smooth="yes"/>
      <point x="523" y="0"/>
      <point x="562" y="30"/>
      <point x="586" y="94" type="curve" smooth="yes"/>
      <point x="859" y="841" type="line"/>
      <point x="859" y="991" type="line"/>
      <point x="809" y="991"/>
      <point x="772" y="959"/>
      <point x="752" y="900" type="curve" smooth="yes"/>
      <point x="488" y="170" type="line"/>
      <point x="220" y="936" type="line" smooth="yes"/>
      <point x="188" y="1029"/>
      <point x="48" y="987"/>
      <point x="84" y="889" type="curve" smooth="yes"/>
      <point x="374" y="86" type="line" smooth="yes"/>
      <point x="396" y="26"/>
      <point x="434" y="0"/>
    </contour>
    <contour>
      <point x="1241" y="0" type="curve" smooth="yes"/>
      <point x="1284" y="0"/>
      <point x="1322" y="26"/>
      <point x="1344" y="86" type="curve" smooth="yes"/>
      <point x="1634" y="889" type="line" smooth="yes"/>
      <point x="1670" y="987"/>
      <point x="1530" y="1029"/>
      <point x="1498" y="936" type="curve" smooth="yes"/>
      <point x="1230" y="170" type="line"/>
      <point x="966" y="900" type="line" smooth="yes"/>
      <point x="946" y="959"/>
      <point x="909" y="991"/>
      <point x="859" y="991" type="curve"/>
      <point x="859" y="841" type="line"/>
      <point x="1132" y="94" type="line" smooth="yes"/>
      <point x="1156" y="30"/>
      <point x="1195" y="0"/>
    </contour>
  </outline>
</glyph>
<glyph name="x" format="1">
  <advance width="1038"/>
  <unicode hex="0078"/>
  <outline>
    <contour>
      <point x="165" y="0" type="curve" smooth="yes"/>
      <point x="186" y="0"/>
      <point x="204" y="10"/>
      <point x="218" y="28" type="curve"/>
      <point x="525" y="417" type="line"/>
      <point x="603" y="495" type="line"/>
      <point x="912" y="886" type="line" smooth="yes"/>
      <point x="922" y="898"/>
      <point x="927" y="911"/>
      <point x="927" y="925" type="curve" smooth="yes"/>
      <point x="927" y="960"/>
      <point x="892" y="991"/>
      <point x="856" y="991" type="curve" smooth="yes"/>
      <point x="836" y="991"/>
      <point x="817" y="982"/>
      <point x="801" y="961" type="curve"/>
      <point x="509" y="591" type="line"/>
      <point x="434" y="513" type="line"/>
      <point x="104" y="106" type="line" smooth="yes"/>
      <point x="96" y="95"/>
      <point x="91" y="83"/>
      <point x="91" y="70" type="curve" smooth="yes"/>
      <point x="91" y="33"/>
      <point x="126" y="0"/>
    </contour>
    <contour>
      <point x="872" y="0" type="curve" smooth="yes"/>
      <point x="916" y="0"/>
      <point x="948" y="37"/>
      <point x="948" y="76" type="curve" smooth="yes"/>
      <point x="948" y="91"/>
      <point x="943" y="104"/>
      <point x="932" y="118" type="curve" smooth="yes"/>
      <point x="262" y="957" type="line" smooth="yes"/>
      <point x="244" y="981"/>
      <point x="221" y="991"/>
      <point x="199" y="991" type="curve" smooth="yes"/>
      <point x="156" y="991"/>
      <point x="124" y="955"/>
      <point x="124" y="914" type="curve" smooth="yes"/>
      <point x="124" y="899"/>
      <point x="128" y="885"/>
      <point x="140" y="870" type="curve" smooth="yes"/>
      <point x="809" y="34" type="line" smooth="yes"/>
      <point x="827" y="10"/>
      <point x="850" y="0"/>
    </contour>
  </outline>
</glyph>
<glyph name="y" format="1">
  <advance width="1027"/>
  <unicode hex="0079"/>
  <outline>
    <contour>
      <point x="563" y="1000" type="move" name="top"/>
    </contour>
    <contour>
      <point x="511" y="-10" type="line"/>
      <point x="592" y="159" type="line"/>
      <point x="229" y="944" type="line" smooth="yes"/>
      <point x="185" y="1040"/>
      <point x="49" y="972"/>
      <point x="92" y="881" type="curve" smooth="yes"/>
    </contour>
    <contour>
      <point x="443" y="-333" type="curve" smooth="yes"/>
      <point x="1008" y="889" type="line" smooth="yes"/>
      <point x="1041" y="973"/>
      <point x="913" y="1038"/>
      <point x="867" y="941" type="curve" smooth="yes"/>
      <point x="302" y="-287" type="line" smooth="yes"/>
      <point x="258" y="-381"/>
      <point x="397" y="-433"/>
    </contour>
  </outline>
</glyph>
<glyph name="asciitilde" format="1">
  <advance width="1341"/>
  <unicode hex="007E"/>
  <outline>
    <contour>
      <point x="767" y="1181" type="curve" smooth="yes"/>
      <point x="854" y="1181"/>
      <point x="904" y="1225"/>
      <point x="932" y="1295" type="curve" smooth="yes"/>
      <point x="951" y="1339"/>
      <point x="881" y="1386"/>
      <point x="846" y="1332" type="curve" smooth="yes"/>
      <point x="831" y="1309"/>
      <point x="804" y="1297"/>
      <point x="779" y="1297" type="curve" smooth="yes"/>
      <point x="713" y="1297"/>
      <point x="624" y="1362"/>
      <point x="534" y="1362" type="curve" smooth="yes"/>
      <point x="453" y="1362"/>
      <point x="403" y="1323"/>
      <point x="367" y="1253" type="curve" smooth="yes"/>
      <point x="340" y="1197"/>
      <point x="425" y="1162"/>
      <point x="451" y="1210" type="curve" smooth="yes"/>
      <point x="469" y="1242"/>
      <point x="498" y="1249"/>
      <point x="527" y="1249" type="curve" smooth="yes"/>
      <point x="599" y="1249"/>
      <point x="689" y="1181"/>
    </contour>
  </outline>
</glyph>
<glyph name="brokenbar" format="1">
  <advance width="455"/>
  <unicode hex="00A6"/>
  <outline>
    <contour>
      <point x="217" y="-138" type="curve" smooth="yes"/>
      <point x="270" y="-138"/>
      <point x="284" y="-96"/>
      <point x="284" y="-52" type="curve" smooth="yes"/>
      <point x="284" y="473" type="line" smooth="yes"/>
      <point x="284" y="526"/>
      <point x="264" y="560"/>
      <point x="218" y="560" type="curve" smooth="yes"/>
      <point x="179" y="560"/>
      <point x="150" y="532"/>
      <point x="150" y="494" type="curve" smooth="yes"/>
      <point x="150" y="-52" type="line" smooth="yes"/>
      <point x="150" y="-105"/>
      <point x="171" y="-138"/>
    </contour>
    <contour>
      <point x="218" y="786" type="curve" smooth="yes"/>
      <point x="270" y="786"/>
      <point x="284" y="829"/>
      <point x="284" y="872" type="curve" smooth="yes"/>
      <point x="284" y="1432" type="line" smooth="yes"/>
      <point x="284" y="1481"/>
      <point x="264" y="1517"/>
      <point x="218" y="1517" type="curve" smooth="yes"/>
      <point x="179" y="1517"/>
      <point x="150" y="1492"/>
      <point x="150" y="1449" type="curve" smooth="yes"/>
      <point x="150" y="872" type="line" smooth="yes"/>
      <point x="150" y="819"/>
      <point x="170" y="786"/>
    </contour>
  </outline>
</glyph>
<glyph name="section" format="1">
  <advance width="1167"/>
  <unicode hex="00A7"/>
  <outline>
    <contour>
      <point x="534" y="-32" type="curve" smooth="yes"/>
      <point x="741" y="-32"/>
      <point x="935" y="66"/>
      <point x="935" y="282" type="curve" smooth="yes"/>
      <point x="935" y="422"/>
      <point x="836" y="491"/>
      <point x="715" y="540" type="curve"/>
      <point x="820" y="584"/>
      <point x="932" y="673"/>
      <point x="932" y="794" type="curve" smooth="yes"/>
      <point x="932" y="1062"/>
      <point x="425" y="1031"/>
      <point x="425" y="1234" type="curve" smooth="yes"/>
      <point x="425" y="1353"/>
      <point x="552" y="1383"/>
      <point x="651" y="1383" type="curve" smooth="yes"/>
      <point x="712" y="1383"/>
      <point x="815" y="1348"/>
      <point x="833" y="1349" type="curve"/>
      <point x="877" y="1350"/>
      <point x="899" y="1383"/>
      <point x="899" y="1416" type="curve" smooth="yes"/>
      <point x="899" y="1439"/>
      <point x="886" y="1462"/>
      <point x="856" y="1471" type="curve" smooth="yes"/>
      <point x="783" y="1492"/>
      <point x="704" y="1510"/>
      <point x="626" y="1510" type="curve" smooth="yes"/>
      <point x="431" y="1510"/>
      <point x="251" y="1434"/>
      <point x="251" y="1229" type="curve" smooth="yes"/>
      <point x="251" y="1097"/>
      <point x="337" y="1047"/>
      <point x="442" y="983" type="curve"/>
      <point x="336" y="940"/>
      <point x="221" y="851"/>
      <point x="221" y="732" type="curve" smooth="yes"/>
      <point x="221" y="416"/>
      <point x="762" y="496"/>
      <point x="762" y="284" type="curve" smooth="yes"/>
      <point x="762" y="145"/>
      <point x="628" y="96"/>
      <point x="510" y="96" type="curve" smooth="yes"/>
      <point x="417" y="96"/>
      <point x="350" y="108"/>
      <point x="294" y="129" type="curve" smooth="yes"/>
      <point x="231" y="148"/>
      <point x="209" y="107"/>
      <point x="209" y="69" type="curve" smooth="yes"/>
      <point x="209" y="47"/>
      <point x="221" y="24"/>
      <point x="252" y="13" type="curve" smooth="yes"/>
      <point x="339" y="-18"/>
      <point x="439" y="-32"/>
    </contour>
    <contour>
      <point x="586" y="583" type="curve"/>
      <point x="511" y="614"/>
      <point x="380" y="656"/>
      <point x="380" y="751" type="curve" smooth="yes"/>
      <point x="380" y="852"/>
      <point x="466" y="887"/>
      <point x="546" y="939" type="curve"/>
      <point x="628" y="895"/>
      <point x="774" y="871"/>
      <point x="774" y="768" type="curve" smooth="yes"/>
      <point x="774" y="670"/>
      <point x="666" y="628"/>
    </contour>
  </outline>
</glyph>
<glyph name="copyright" format="1">
  <advance width="1655"/>
  <unicode hex="00A9"/>
  <outline>
    <contour>
      <point x="847" y="400" type="curve" smooth="yes"/>
      <point x="926" y="400"/>
      <point x="1103" y="437"/>
      <point x="1103" y="508" type="curve" smooth="yes"/>
      <point x="1103" y="532"/>
      <point x="1085" y="552"/>
      <point x="1062" y="552" type="curve" smooth="yes"/>
      <point x="1053" y="552"/>
      <point x="1047" y="550"/>
      <point x="1042" y="547" type="curve"/>
      <point x="983" y="515"/>
      <point x="926" y="497"/>
      <point x="866" y="497" type="curve" smooth="yes"/>
      <point x="715" y="497"/>
      <point x="581" y="603"/>
      <point x="581" y="799" type="curve" smooth="yes"/>
      <point x="581" y="999"/>
      <point x="707" y="1088"/>
      <point x="856" y="1088" type="curve" smooth="yes"/>
      <point x="920" y="1088"/>
      <point x="991" y="1071"/>
      <point x="1052" y="1038" type="curve"/>
      <point x="1060" y="1035"/>
      <point x="1066" y="1033"/>
      <point x="1071" y="1033" type="curve" smooth="yes"/>
      <point x="1097" y="1033"/>
      <point x="1115" y="1059"/>
      <point x="1115" y="1084" type="curve" smooth="yes"/>
      <point x="1115" y="1151"/>
      <point x="918" y="1186"/>
      <point x="844" y="1186" type="curve" smooth="yes"/>
      <point x="640" y="1186"/>
      <point x="459" y="1055"/>
      <point x="459" y="797" type="curve" smooth="yes"/>
      <point x="459" y="538"/>
      <point x="647" y="400"/>
    </contour>
    <contour>
      <point x="836" y="240" type="curve" smooth="yes"/>
      <point x="504" y="240"/>
      <point x="262" y="470"/>
      <point x="262" y="790" type="curve" smooth="yes"/>
      <point x="262" y="1108"/>
      <point x="504" y="1340"/>
      <point x="836" y="1340" type="curve" smooth="yes"/>
      <point x="1166" y="1340"/>
      <point x="1405" y="1108"/>
      <point x="1405" y="790" type="curve" smooth="yes"/>
      <point x="1405" y="470"/>
      <point x="1166" y="240"/>
    </contour>
    <contour>
      <point x="836" y="128" type="curve" smooth="yes"/>
      <point x="1216" y="128"/>
      <point x="1525" y="425"/>
      <point x="1525" y="790" type="curve" smooth="yes"/>
      <point x="1525" y="1155"/>
      <point x="1216" y="1453"/>
      <point x="836" y="1453" type="curve" smooth="yes"/>
      <point x="454" y="1453"/>
      <point x="144" y="1155"/>
      <point x="144" y="790" type="curve" smooth="yes"/>
      <point x="144" y="425"/>
      <point x="454" y="128"/>
    </contour>
  </outline>
</glyph>
<glyph name="ordfeminine" format="1">
  <advance width="1042"/>
  <unicode hex="00AA"/>
  <outline>
    <contour>
      <point x="404" y="700" type="curve" smooth="yes"/>
      <point x="510" y="700"/>
      <point x="615" y="753"/>
      <point x="658" y="846" type="curve"/>
      <point x="658" y="774" type="line" smooth="yes"/>
      <point x="658" y="739"/>
      <point x="686" y="722"/>
      <point x="714" y="722" type="curve" smooth="yes"/>
      <point x="743" y="722"/>
      <point x="771" y="740"/>
      <point x="771" y="775" type="curve" smooth="yes"/>
      <point x="772" y="1249" type="line" smooth="yes"/>
      <point x="772" y="1432"/>
      <point x="661" y="1510"/>
      <point x="482" y="1510" type="curve" smooth="yes"/>
      <point x="361" y="1510"/>
      <point x="265" y="1476"/>
      <point x="200" y="1413" type="curve"/>
      <point x="190" y="1403"/>
      <point x="184" y="1393"/>
      <point x="184" y="1382" type="curve" smooth="yes"/>
      <point x="184" y="1358"/>
      <point x="202" y="1337"/>
      <point x="229" y="1337" type="curve" smooth="yes"/>
      <point x="237" y="1337"/>
      <point x="247" y="1338"/>
      <point x="256" y="1346" type="curve" smooth="yes"/>
      <point x="318" y="1384"/>
      <point x="372" y="1413"/>
      <point x="479" y="1413" type="curve" smooth="yes"/>
      <point x="585" y="1413"/>
      <point x="657" y="1374"/>
      <point x="657" y="1257" type="curve" smooth="yes"/>
      <point x="657" y="1191" type="line"/>
      <point x="628" y="1194"/>
      <point x="596" y="1195"/>
      <point x="568" y="1195" type="curve" smooth="yes"/>
      <point x="314" y="1195"/>
      <point x="140" y="1125"/>
      <point x="140" y="936" type="curve" smooth="yes"/>
      <point x="140" y="787"/>
      <point x="255" y="700"/>
    </contour>
    <contour>
      <point x="429" y="792" type="curve"/>
      <point x="336" y="795"/>
      <point x="262" y="839"/>
      <point x="262" y="938" type="curve" smooth="yes"/>
      <point x="262" y="1084"/>
      <point x="436" y="1102"/>
      <point x="657" y="1102" type="curve"/>
      <point x="657" y="1030" type="line"/>
      <point x="649" y="872"/>
      <point x="552" y="795"/>
    </contour>
  </outline>
</glyph>
<glyph name="logicalnot" format="1">
  <advance width="1341"/>
  <unicode hex="00AC"/>
  <outline>
    <contour>
      <point x="1114" y="229" type="curve" smooth="yes"/>
      <point x="1149" y="229"/>
      <point x="1183" y="251"/>
      <point x="1183" y="295" type="curve" smooth="yes"/>
      <point x="1183" y="717" type="line" smooth="yes"/>
      <point x="1183" y="751"/>
      <point x="1149" y="786"/>
      <point x="1113" y="786" type="curve" smooth="yes"/>
      <point x="221" y="786" type="line" smooth="yes"/>
      <point x="178" y="786"/>
      <point x="160" y="752"/>
      <point x="160" y="718" type="curve" smooth="yes"/>
      <point x="160" y="683"/>
      <point x="178" y="649"/>
      <point x="221" y="649" type="curve" smooth="yes"/>
      <point x="1046" y="649" type="line"/>
      <point x="1046" y="295" type="line" smooth="yes"/>
      <point x="1046" y="251"/>
      <point x="1079" y="229"/>
    </contour>
  </outline>
</glyph>
<glyph name="registered" format="1">
  <advance width="1655"/>
  <unicode hex="00AE"/>
  <outline>
    <contour>
      <point x="634" y="391" type="curve" smooth="yes"/>
      <point x="663" y="391"/>
      <point x="692" y="409"/>
      <point x="692" y="444" type="curve" smooth="yes"/>
      <point x="692" y="733" type="line"/>
      <point x="841" y="733" type="line"/>
      <point x="1047" y="414" type="line" smooth="yes"/>
      <point x="1086" y="353"/>
      <point x="1170" y="417"/>
      <point x="1138" y="469" type="curve" smooth="yes"/>
      <point x="952" y="734" type="line"/>
      <point x="1083" y="746"/>
      <point x="1182" y="789"/>
      <point x="1182" y="937" type="curve" smooth="yes"/>
      <point x="1182" y="1072"/>
      <point x="1113" y="1141"/>
      <point x="909" y="1141" type="curve" smooth="yes"/>
      <point x="652" y="1141" type="line" smooth="yes"/>
      <point x="600" y="1141"/>
      <point x="579" y="1100"/>
      <point x="579" y="1067" type="curve" smooth="yes"/>
      <point x="579" y="444" type="line" smooth="yes"/>
      <point x="579" y="408"/>
      <point x="607" y="391"/>
    </contour>
    <contour>
      <point x="692" y="827" type="curve"/>
      <point x="692" y="1045" type="line"/>
      <point x="890" y="1045" type="line" smooth="yes"/>
      <point x="981" y="1045"/>
      <point x="1062" y="1031"/>
      <point x="1062" y="941" type="curve" smooth="yes"/>
      <point x="1062" y="829"/>
      <point x="974" y="827"/>
      <point x="886" y="827" type="curve" smooth="yes"/>
      <point x="889" y="827"/>
      <point x="690" y="827"/>
    </contour>
    <contour>
      <point x="833" y="204" type="curve" smooth="yes"/>
      <point x="497" y="204"/>
      <point x="253" y="439"/>
      <point x="253" y="762" type="curve" smooth="yes"/>
      <point x="253" y="1084"/>
      <point x="497" y="1319"/>
      <point x="833" y="1319" type="curve" smooth="yes"/>
      <point x="1167" y="1319"/>
      <point x="1410" y="1084"/>
      <point x="1410" y="762" type="curve" smooth="yes"/>
      <point x="1410" y="439"/>
      <point x="1167" y="204"/>
    </contour>
    <contour>
      <point x="833" y="94" type="curve" smooth="yes"/>
      <point x="1218" y="94"/>
      <point x="1534" y="397"/>
      <point x="1534" y="762" type="curve" smooth="yes"/>
      <point x="1534" y="1132"/>
      <point x="1218" y="1435"/>
      <point x="833" y="1435" type="curve" smooth="yes"/>
      <point x="446" y="1435"/>
      <point x="130" y="1132"/>
      <point x="130" y="762" type="curve" smooth="yes"/>
      <point x="130" y="397"/>
      <point x="446" y="94"/>
    </contour>
  </outline>
</glyph>
<glyph name="periodcentered" format="1">
  <advance width="583"/>
  <unicode hex="00B7"/>
  <outline>
    <contour>
      <point x="271" y="422" type="curve" smooth="yes"/>
      <point x="339" y="422"/>
      <point x="377" y="470"/>
      <point x="377" y="520" type="curve" smooth="yes"/>
      <point x="377" y="569"/>
      <point x="339" y="617"/>
      <point x="271" y="617" type="curve" smooth="yes"/>
      <point x="201" y="617"/>
      <point x="163" y="569"/>
      <point x="163" y="520" type="curve" smooth="yes"/>
      <point x="163" y="470"/>
      <point x="201" y="422"/>
    </contour>
  </outline>
</glyph>
<glyph name="ordmasculine" format="1">
  <advance width="1120"/>
  <unicode hex="00BA"/>
  <outline>
    <contour>
      <point x="542" y="800" type="curve" smooth="yes"/>
      <point x="362" y="800"/>
      <point x="289" y="968"/>
      <point x="289" y="1107" type="curve" smooth="yes"/>
      <point x="289" y="1248"/>
      <point x="362" y="1415"/>
      <point x="542" y="1415" type="curve" smooth="yes"/>
      <point x="723" y="1415"/>
      <point x="795" y="1248"/>
      <point x="795" y="1108" type="curve" smooth="yes"/>
      <point x="795" y="968"/>
      <point x="723" y="800"/>
    </contour>
    <contour>
      <point x="542" y="706" type="curve" smooth="yes"/>
      <point x="805" y="706"/>
      <point x="926" y="904"/>
      <point x="926" y="1107" type="curve" smooth="yes"/>
      <point x="926" y="1309"/>
      <point x="805" y="1510"/>
      <point x="542" y="1510" type="curve" smooth="yes"/>
      <point x="279" y="1510"/>
      <point x="159" y="1309"/>
      <point x="159" y="1107" type="curve" smooth="yes"/>
      <point x="159" y="904"/>
      <point x="279" y="706"/>
    </contour>
  </outline>
</glyph>
<glyph name="Oslash" format="1">
  <advance width="1597"/>
  <unicode hex="00D8"/>
  <outline>
    <contour>
      <point x="274" y="-119" type="curve" smooth="yes"/>
      <point x="294" y="-119"/>
      <point x="313" y="-112"/>
      <point x="333" y="-85" type="curve"/>
      <point x="1388" y="1434" type="line" smooth="yes"/>
      <point x="1401" y="1455"/>
      <point x="1407" y="1474"/>
      <point x="1407" y="1490" type="curve" smooth="yes"/>
      <point x="1407" y="1524"/>
      <point x="1382" y="1545"/>
      <point x="1352" y="1545" type="curve" smooth="yes"/>
      <point x="1333" y="1545"/>
      <point x="1310" y="1538"/>
      <point x="1292" y="1512" type="curve" smooth="yes"/>
      <point x="232" y="-29" type="line" smooth="yes"/>
      <point x="223" y="-41"/>
      <point x="219" y="-54"/>
      <point x="219" y="-66" type="curve" smooth="yes"/>
      <point x="219" y="-95"/>
      <point x="245" y="-119"/>
    </contour>
    <component base="O"/>
  </outline>
</glyph>
<glyph name="germandbls" format="1">
  <advance width="1279"/>
  <unicode hex="00DF"/>
  <outline>
    <contour>
      <point x="837" y="-28" type="curve" smooth="yes"/>
      <point x="1035" y="-28"/>
      <point x="1201" y="94"/>
      <point x="1201" y="307" type="curve" smooth="yes"/>
      <point x="1201" y="616"/>
      <point x="766" y="606"/>
      <point x="766" y="792" type="curve" smooth="yes"/>
      <point x="766" y="889"/>
      <point x="1006" y="985"/>
      <point x="1006" y="1145" type="curve" smooth="yes"/>
      <point x="1006" y="1348"/>
      <point x="817" y="1455"/>
      <point x="617" y="1455" type="curve" smooth="yes"/>
      <point x="308" y="1455"/>
      <point x="169" y="1272"/>
      <point x="169" y="993" type="curve" smooth="yes"/>
      <point x="169" y="76" type="line" smooth="yes"/>
      <point x="169" y="25"/>
      <point x="207" y="0"/>
      <point x="245" y="0" type="curve" smooth="yes"/>
      <point x="286" y="0"/>
      <point x="326" y="26"/>
      <point x="326" y="76" type="curve" smooth="yes"/>
      <point x="326" y="962" type="line"/>
      <point x="329" y="1138"/>
      <point x="386" y="1334"/>
      <point x="601" y="1334" type="curve" smooth="yes"/>
      <point x="718" y="1334"/>
      <point x="841" y="1275"/>
      <point x="841" y="1149" type="curve" smooth="yes"/>
      <point x="841" y="1014"/>
      <point x="600" y="952"/>
      <point x="600" y="779" type="curve" smooth="yes"/>
      <point x="600" y="521"/>
      <point x="1040" y="520"/>
      <point x="1040" y="300" type="curve" smooth="yes"/>
      <point x="1040" y="162"/>
      <point x="957" y="96"/>
      <point x="831" y="96" type="curve" smooth="yes"/>
      <point x="749" y="96"/>
      <point x="693" y="133"/>
      <point x="652" y="198" type="curve" smooth="yes"/>
      <point x="638" y="218"/>
      <point x="618" y="227"/>
      <point x="599" y="227" type="curve" smooth="yes"/>
      <point x="565" y="227"/>
      <point x="530" y="200"/>
      <point x="530" y="161" type="curve" smooth="yes"/>
      <point x="530" y="149"/>
      <point x="533" y="137"/>
      <point x="540" y="124" type="curve" smooth="yes"/>
      <point x="595" y="22"/>
      <point x="700" y="-28"/>
    </contour>
  </outline>
</glyph>
<glyph name="ae" format="1">
  <advance width="1698"/>
  <unicode hex="00E6"/>
  <outline>
    <contour>
      <point x="856" y="990" type="move" name="top"/>
    </contour>
    <contour>
      <point x="419" y="-28" type="curve" smooth="yes"/>
      <point x="563" y="-28"/>
      <point x="737" y="35"/>
      <point x="815" y="200" type="curve"/>
      <point x="878" y="64"/>
      <point x="990" y="-28"/>
      <point x="1156" y="-28" type="curve" smooth="yes"/>
      <point x="1347" y="-28"/>
      <point x="1551" y="72"/>
      <point x="1551" y="163" type="curve" smooth="yes"/>
      <point x="1551" y="190"/>
      <point x="1532" y="213"/>
      <point x="1503" y="213" type="curve" smooth="yes"/>
      <point x="1491" y="213"/>
      <point x="1477" y="209"/>
      <point x="1462" y="198" type="curve" smooth="yes"/>
      <point x="1398" y="149"/>
      <point x="1298" y="98"/>
      <point x="1198" y="98" type="curve" smooth="yes"/>
      <point x="985" y="98"/>
      <point x="905" y="261"/>
      <point x="902" y="463" type="curve"/>
      <point x="1528" y="463" type="line" smooth="yes"/>
      <point x="1572" y="463"/>
      <point x="1590" y="495"/>
      <point x="1590" y="526" type="curve"/>
      <point x="1582" y="804"/>
      <point x="1460" y="1020"/>
      <point x="1173" y="1020" type="curve" smooth="yes"/>
      <point x="1024" y="1020"/>
      <point x="913" y="947"/>
      <point x="840" y="839" type="curve"/>
      <point x="789" y="965"/>
      <point x="678" y="1020"/>
      <point x="515" y="1020" type="curve" smooth="yes"/>
      <point x="359" y="1020"/>
      <point x="230" y="975"/>
      <point x="148" y="894" type="curve" smooth="yes"/>
      <point x="135" y="881"/>
      <point x="129" y="867"/>
      <point x="129" y="852" type="curve" smooth="yes"/>
      <point x="129" y="821"/>
      <point x="155" y="795"/>
      <point x="186" y="795" type="curve" smooth="yes"/>
      <point x="197" y="795"/>
      <point x="208" y="798"/>
      <point x="222" y="806" type="curve" smooth="yes"/>
      <point x="302" y="854"/>
      <point x="372" y="892"/>
      <point x="510" y="892" type="curve" smooth="yes"/>
      <point x="647" y="892"/>
      <point x="740" y="844"/>
      <point x="740" y="690" type="curve" smooth="yes"/>
      <point x="740" y="608" type="line"/>
      <point x="702" y="609"/>
      <point x="661" y="610"/>
      <point x="626" y="611" type="curve" smooth="yes"/>
      <point x="296" y="611"/>
      <point x="70" y="521"/>
      <point x="70" y="276" type="curve" smooth="yes"/>
      <point x="70" y="84"/>
      <point x="220" y="-28"/>
    </contour>
    <contour>
      <point x="446" y="91" type="curve"/>
      <point x="328" y="94"/>
      <point x="230" y="153"/>
      <point x="230" y="280" type="curve" smooth="yes"/>
      <point x="230" y="515"/>
      <point x="560" y="483"/>
      <point x="739" y="491" type="curve"/>
      <point x="739" y="397" type="line"/>
      <point x="730" y="194"/>
      <point x="605" y="94"/>
    </contour>
    <contour>
      <point x="905" y="579" type="line"/>
      <point x="918" y="748"/>
      <point x="1006" y="899"/>
      <point x="1175" y="899" type="curve" smooth="yes"/>
      <point x="1344" y="899"/>
      <point x="1423" y="763"/>
      <point x="1436" y="579" type="curve"/>
    </contour>
  </outline>
</glyph>
<glyph name="kgreenlandic" format="1">
  <advance width="981"/>
  <unicode hex="0138"/>
  <outline>
    <contour>
      <point x="793" y="26" type="line"/>
      <point x="861" y="-43"/>
      <point x="963" y="54"/>
      <point x="898" y="118" type="curve" smooth="yes"/>
      <point x="486" y="525" type="line"/>
      <point x="870" y="891" type="line" smooth="yes"/>
      <point x="934" y="953"/>
      <point x="840" y="1046"/>
      <point x="782" y="991" type="curve" smooth="yes"/>
      <point x="316" y="545" type="line"/>
      <point x="316" y="508" type="line"/>
    </contour>
    <contour>
      <point x="235" y="0" type="curve" smooth="yes"/>
      <point x="275" y="0"/>
      <point x="316" y="28"/>
      <point x="316" y="80" type="curve" smooth="yes"/>
      <point x="316" y="925" type="line" smooth="yes"/>
      <point x="316" y="977"/>
      <point x="276" y="1004"/>
      <point x="238" y="1004" type="curve" smooth="yes"/>
      <point x="199" y="1004"/>
      <point x="158" y="977"/>
      <point x="158" y="925" type="curve" smooth="yes"/>
      <point x="158" y="80" type="line" smooth="yes"/>
      <point x="158" y="24"/>
      <point x="197" y="0"/>
    </contour>
  </outline>
</glyph>
<glyph name="Lslash" format="1">
  <advance width="1149"/>
  <unicode hex="0141"/>
  <outline>
    <contour>
      <point x="82" y="636" type="curve" smooth="yes"/>
      <point x="675" y="831" type="line" smooth="yes"/>
      <point x="757" y="857"/>
      <point x="720" y="985"/>
      <point x="633" y="956" type="curve" smooth="yes"/>
      <point x="41" y="763" type="line" smooth="yes"/>
      <point x="-47" y="734"/>
      <point x="-12" y="606"/>
    </contour>
    <component base="L"/>
  </outline>
</glyph>
<glyph name="lslash" format="1">
  <advance width="472"/>
  <unicode hex="0142"/>
  <outline>
    <contour>
      <point x="-23" y="565" type="curve" smooth="yes"/>
      <point x="-12" y="565"/>
      <point x="-2" y="568"/>
      <point x="8" y="573" type="curve"/>
      <point x="556" y="877" type="line"/>
      <point x="583" y="891"/>
      <point x="591" y="910"/>
      <point x="591" y="932" type="curve" smooth="yes"/>
      <point x="591" y="968"/>
      <point x="563" y="1003"/>
      <point x="525" y="1003" type="curve" smooth="yes"/>
      <point x="516" y="1003"/>
      <point x="506" y="1000"/>
      <point x="494" y="995" type="curve"/>
      <point x="-53" y="692" type="line"/>
      <point x="-78" y="678"/>
      <point x="-89" y="657"/>
      <point x="-89" y="636" type="curve" smooth="yes"/>
      <point x="-89" y="600"/>
      <point x="-60" y="565"/>
    </contour>
    <component base="l"/>
  </outline>
</glyph>
<glyph name="OE" format="1">
  <advance width="1998"/>
  <unicode hex="0152"/>
  <outline>
    <contour>
      <point x="721" y="-29" type="curve" smooth="yes"/>
      <point x="849" y="-29"/>
      <point x="1084" y="-1"/>
      <point x="1091" y="-1" type="curve" smooth="yes"/>
      <point x="1798" y="-1" type="line" smooth="yes"/>
      <point x="1846" y="-1"/>
      <point x="1871" y="33"/>
      <point x="1871" y="69" type="curve" smooth="yes"/>
      <point x="1871" y="105"/>
      <point x="1846" y="141"/>
      <point x="1798" y="141" type="curve" smooth="yes"/>
      <point x="1247" y="141" type="line"/>
      <point x="1247" y="663" type="line"/>
      <point x="1740" y="663" type="line" smooth="yes"/>
      <point x="1791" y="663"/>
      <point x="1817" y="697"/>
      <point x="1817" y="733" type="curve" smooth="yes"/>
      <point x="1817" y="769"/>
      <point x="1791" y="805"/>
      <point x="1740" y="805" type="curve" smooth="yes"/>
      <point x="1247" y="805" type="line"/>
      <point x="1247" y="1284" type="line"/>
      <point x="1772" y="1284" type="line" smooth="yes"/>
      <point x="1820" y="1284"/>
      <point x="1846" y="1319"/>
      <point x="1846" y="1355" type="curve" smooth="yes"/>
      <point x="1846" y="1391"/>
      <point x="1820" y="1426"/>
      <point x="1772" y="1426" type="curve" smooth="yes"/>
      <point x="1099" y="1426" type="line" smooth="yes"/>
      <point x="1090" y="1426"/>
      <point x="860" y="1453"/>
      <point x="727" y="1453" type="curve" smooth="yes"/>
      <point x="348" y="1453"/>
      <point x="119" y="1160"/>
      <point x="119" y="712" type="curve" smooth="yes"/>
      <point x="119" y="265"/>
      <point x="349" y="-29"/>
    </contour>
    <contour>
      <point x="726" y="110" type="curve"/>
      <point x="427" y="110"/>
      <point x="294" y="402"/>
      <point x="294" y="713" type="curve" smooth="yes"/>
      <point x="294" y="1024"/>
      <point x="429" y="1314"/>
      <point x="726" y="1314" type="curve" smooth="yes"/>
      <point x="952" y="1314"/>
      <point x="1074" y="1291"/>
      <point x="1076" y="1292" type="curve"/>
      <point x="1076" y="138" type="line"/>
      <point x="1075" y="136"/>
      <point x="939" y="113"/>
    </contour>
  </outline>
</glyph>
<glyph name="dotlessj" format="1">
  <advance width="474"/>
  <unicode hex="0237"/>
  <outline>
    <contour>
      <point x="240" y="991" type="move" name="top"/>
    </contour>
    <contour>
      <point x="1" y="-377" type="curve" smooth="yes"/>
      <point x="303" y="-377"/>
      <point x="317" y="-283"/>
      <point x="317" y="-34" type="curve" smooth="yes"/>
      <point x="317" y="913" type="line" smooth="yes"/>
      <point x="317" y="964"/>
      <point x="277" y="991"/>
      <point x="240" y="991" type="curve" smooth="yes"/>
      <point x="200" y="991"/>
      <point x="160" y="964"/>
      <point x="160" y="913" type="curve" smooth="yes"/>
      <point x="160" y="-74" type="line" smooth="yes"/>
      <point x="160" y="-238"/>
      <point x="142" y="-253"/>
      <point x="1" y="-253" type="curve" smooth="yes"/>
      <point x="-74" y="-253"/>
      <point x="-77" y="-377"/>
    </contour>
  </outline>
</glyph>
<glyph name="caron" format="1">
  <advance width="569"/>
  <unicode hex="02C7"/>
  <outline>
    <contour>
      <point x="294" y="1040" type="move" name="_top"/>
    </contour>
    <contour>
      <point x="285" y="1115" type="curve" smooth="yes"/>
      <point x="314" y="1115"/>
      <point x="345" y="1130"/>
      <point x="369" y="1165" type="curve" smooth="yes"/>
      <point x="557" y="1432" type="line" smooth="yes"/>
      <point x="568" y="1447"/>
      <point x="573" y="1462"/>
      <point x="573" y="1477" type="curve" smooth="yes"/>
      <point x="573" y="1507"/>
      <point x="548" y="1531"/>
      <point x="518" y="1531" type="curve" smooth="yes"/>
      <point x="498" y="1531"/>
      <point x="477" y="1521"/>
      <point x="459" y="1497" type="curve" smooth="yes"/>
      <point x="285" y="1263" type="line"/>
      <point x="111" y="1497" type="line" smooth="yes"/>
      <point x="92" y="1521"/>
      <point x="70" y="1531"/>
      <point x="50" y="1531" type="curve" smooth="yes"/>
      <point x="20" y="1531"/>
      <point x="-5" y="1507"/>
      <point x="-5" y="1477" type="curve" smooth="yes"/>
      <point x="-5" y="1464"/>
      <point x="-1" y="1449"/>
      <point x="11" y="1432" type="curve" smooth="yes"/>
      <point x="200" y="1165" type="line"/>
      <point x="222" y="1132"/>
      <point x="254" y="1115"/>
    </contour>
  </outline>
</glyph>
<glyph name="ring" format="1">
  <advance width="569"/>
  <unicode hex="02DA"/>
  <outline>
    <contour>
      <point x="285" y="1040" type="move" name="_top"/>
    </contour>
    <contour>
      <point x="285" y="1261" type="curve" smooth="yes"/>
      <point x="217" y="1261"/>
      <point x="175" y="1302"/>
      <point x="175" y="1367" type="curve" smooth="yes"/>
      <point x="175" y="1433"/>
      <point x="217" y="1473"/>
      <point x="285" y="1473" type="curve" smooth="yes"/>
      <point x="353" y="1473"/>
      <point x="395" y="1433"/>
      <point x="395" y="1367" type="curve" smooth="yes"/>
      <point x="395" y="1302"/>
      <point x="353" y="1261"/>
    </contour>
    <contour>
      <point x="285" y="1185" type="curve" smooth="yes"/>
      <point x="401" y="1185"/>
      <point x="473" y="1256"/>
      <point x="473" y="1367" type="curve" smooth="yes"/>
      <point x="473" y="1479"/>
      <point x="401" y="1549"/>
      <point x="285" y="1549" type="curve" smooth="yes"/>
      <point x="168" y="1549"/>
      <point x="96" y="1479"/>
      <point x="96" y="1367" type="curve" smooth="yes"/>
      <point x="96" y="1256"/>
      <point x="168" y="1185"/>
    </contour>
  </outline>
</glyph>
<glyph name="uni0307" format="1">
  <advance width="600"/>
  <unicode hex="0307"/>
  <outline>
    <contour>
      <point x="322" y="422" type="curve" smooth="yes"/>
      <point x="390" y="422"/>
      <point x="429" y="470"/>
      <point x="429" y="520" type="curve" smooth="yes"/>
      <point x="429" y="569"/>
      <point x="390" y="617"/>
      <point x="322" y="617" type="curve" smooth="yes"/>
      <point x="253" y="617"/>
      <point x="214" y="569"/>
      <point x="214" y="520" type="curve" smooth="yes"/>
      <point x="214" y="470"/>
      <point x="253" y="422"/>
    </contour>
  </outline>
</glyph>
<glyph name="commaturnedabovecomb" format="1">
  <advance width="600"/>
  <unicode hex="0312"/>
  <outline>
    <contour>
      <point x="230" y="1210" type="curve"/>
      <point x="320" y="1210" type="line"/>
      <point x="352" y="1211"/>
      <point x="385" y="1219"/>
      <point x="393" y="1266" type="curve" smooth="yes"/>
      <point x="477" y="1736" type="line" smooth="yes"/>
      <point x="479" y="1748"/>
      <point x="481" y="1778"/>
      <point x="453" y="1779" type="curve"/>
      <point x="412" y="1779" type="line"/>
      <point x="383" y="1780"/>
      <point x="367" y="1768"/>
      <point x="356" y="1736" type="curve" smooth="yes"/>
      <point x="196" y="1266" type="line" smooth="yes"/>
      <point x="191" y="1252"/>
      <point x="188" y="1213"/>
    </contour>
  </outline>
</glyph>
<glyph name="Delta" format="1">
  <advance width="1193"/>
  <unicode hex="0394"/>
  <outline>
    <contour>
      <point x="3" y="0" type="line"/>
      <point x="1191" y="0" type="line"/>
      <point x="660" y="1385" type="line" smooth="yes"/>
      <point x="634" y="1451"/>
      <point x="561" y="1451"/>
      <point x="535" y="1385" type="curve" smooth="yes"/>
    </contour>
    <contour>
      <point x="176" y="90" type="line"/>
      <point x="596" y="1238" type="line"/>
      <point x="1021" y="90" type="line"/>
    </contour>
  </outline>
</glyph>
<glyph name="endash" format="1">
  <advance width="1024"/>
  <unicode hex="2013"/>
  <outline>
    <contour>
      <point x="70" y="458" type="curve" smooth="yes"/>
      <point x="953" y="458" type="line" smooth="yes"/>
      <point x="999" y="458"/>
      <point x="1021" y="492"/>
      <point x="1021" y="527" type="curve" smooth="yes"/>
      <point x="1021" y="561"/>
      <point x="999" y="597"/>
      <point x="953" y="597" type="curve" smooth="yes"/>
      <point x="70" y="597" type="line" smooth="yes"/>
      <point x="24" y="597"/>
      <point x="2" y="562"/>
      <point x="2" y="528" type="curve" smooth="yes"/>
      <point x="2" y="492"/>
      <point x="24" y="458"/>
    </contour>
  </outline>
</glyph>
<glyph name="quoteright" format="1">
  <advance width="583"/>
  <unicode hex="2019"/>
  <outline>
    <contour>
      <point x="198" y="1006" type="curve" smooth="yes"/>
      <point x="239" y="1006" type="line" smooth="yes"/>
      <point x="268" y="1006"/>
      <point x="282" y="1017"/>
      <point x="295" y="1049" type="curve" smooth="yes"/>
      <point x="428" y="1370" type="line" smooth="yes"/>
      <point x="434" y="1384"/>
      <point x="436" y="1426"/>
      <point x="394" y="1426" type="curve" smooth="yes"/>
      <point x="304" y="1426" type="line" smooth="yes"/>
      <point x="272" y="1424"/>
      <point x="239" y="1417"/>
      <point x="231" y="1370" type="curve" smooth="yes"/>
      <point x="174" y="1049" type="line" smooth="yes"/>
      <point x="172" y="1037"/>
      <point x="170" y="1006"/>
    </contour>
  </outline>
</glyph>
<glyph name="dagger" format="1">
  <advance width="1167"/>
  <unicode hex="2020"/>
  <outline>
    <contour>
      <point x="583" y="0" type="curve" smooth="yes"/>
      <point x="621" y="0"/>
      <point x="659" y="25"/>
      <point x="659" y="73" type="curve" smooth="yes"/>
      <point x="659" y="983" type="line"/>
      <point x="944" y="983" type="line" smooth="yes"/>
      <point x="986" y="983"/>
      <point x="1007" y="1016"/>
      <point x="1007" y="1050" type="curve" smooth="yes"/>
      <point x="1007" y="1083"/>
      <point x="986" y="1116"/>
      <point x="944" y="1116" type="curve" smooth="yes"/>
      <point x="659" y="1116" type="line"/>
      <point x="659" y="1404" type="line" smooth="yes"/>
      <point x="659" y="1452"/>
      <point x="621" y="1478"/>
      <point x="583" y="1478" type="curve" smooth="yes"/>
      <point x="544" y="1478"/>
      <point x="508" y="1454"/>
      <point x="508" y="1404" type="curve" smooth="yes"/>
      <point x="508" y="1116" type="line"/>
      <point x="218" y="1116" type="line" smooth="yes"/>
      <point x="177" y="1116"/>
      <point x="157" y="1084"/>
      <point x="157" y="1049" type="curve" smooth="yes"/>
      <point x="157" y="1015"/>
      <point x="177" y="983"/>
      <point x="218" y="983" type="curve" smooth="yes"/>
      <point x="508" y="983" type="line"/>
      <point x="508" y="73" type="line" smooth="yes"/>
      <point x="508" y="25"/>
      <point x="544" y="0"/>
    </contour>
  </outline>
</glyph>
<glyph name="fraction" format="1">
  <advance width="586"/>
  <unicode hex="2044"/>
  <outline>
    <contour>
      <point x="48" y="-74" type="curve" smooth="yes"/>
      <point x="76" y="-74"/>
      <point x="103" y="-59"/>
      <point x="114" y="-25" type="curve"/>
      <point x="602" y="1439" type="line" smooth="yes"/>
      <point x="605" y="1450"/>
      <point x="607" y="1459"/>
      <point x="607" y="1466" type="curve" smooth="yes"/>
      <point x="607" y="1506"/>
      <point x="572" y="1530"/>
      <point x="536" y="1530" type="curve" smooth="yes"/>
      <point x="508" y="1530"/>
      <point x="479" y="1515"/>
      <point x="468" y="1481" type="curve" smooth="yes"/>
      <point x="-15" y="17" type="line" smooth="yes"/>
      <point x="-18" y="6"/>
      <point x="-20" y="-3"/>
      <point x="-20" y="-10" type="curve" smooth="yes"/>
      <point x="-20" y="-51"/>
      <point x="13" y="-74"/>
    </contour>
  </outline>
</glyph>
<glyph name="foursuperior" format="1">
  <advance width="722"/>
  <unicode hex="2074"/>
  <outline>
    <contour>
      <point x="484" y="564" type="curve" smooth="yes"/>
      <point x="508" y="564"/>
      <point x="532" y="580"/>
      <point x="532" y="611" type="curve" smooth="yes"/>
      <point x="532" y="753" type="line"/>
      <point x="625" y="753" type="line" smooth="yes"/>
      <point x="652" y="753"/>
      <point x="664" y="770"/>
      <point x="664" y="789" type="curve" smooth="yes"/>
      <point x="664" y="808"/>
      <point x="650" y="824"/>
      <point x="625" y="824" type="curve" smooth="yes"/>
      <point x="532" y="824" type="line"/>
      <point x="532" y="1330" type="line" smooth="yes"/>
      <point x="532" y="1380"/>
      <point x="501" y="1403"/>
      <point x="462" y="1403" type="curve" smooth="yes"/>
      <point x="431" y="1403"/>
      <point x="403" y="1389"/>
      <point x="382" y="1355" type="curve"/>
      <point x="45" y="844" type="line" smooth="yes"/>
      <point x="37" y="832"/>
      <point x="33" y="820"/>
      <point x="33" y="807" type="curve" smooth="yes"/>
      <point x="33" y="778"/>
      <point x="55" y="753"/>
      <point x="89" y="753" type="curve" smooth="yes"/>
      <point x="436" y="753" type="line"/>
      <point x="436" y="611" type="line" smooth="yes"/>
      <point x="436" y="580"/>
      <point x="460" y="564"/>
    </contour>
    <contour>
      <point x="120" y="824" type="line"/>
      <point x="436" y="1309" type="line"/>
      <point x="436" y="824" type="line"/>
    </contour>
  </outline>
</glyph>
<glyph name="Omega" format="1">
  <advance width="1489"/>
  <unicode hex="2126"/>
  <outline>
    <contour>
      <point x="296" y="0" type="curve" smooth="yes"/>
      <point x="763" y="0" type="line"/>
      <point x="538" y="330"/>
      <point x="335" y="665"/>
      <point x="335" y="913" type="curve" smooth="yes"/>
      <point x="335" y="1146"/>
      <point x="478" y="1302"/>
      <point x="850" y="1302" type="curve" smooth="yes"/>
      <point x="1222" y="1302"/>
      <point x="1366" y="1146"/>
      <point x="1366" y="913" type="curve" smooth="yes"/>
      <point x="1366" y="665"/>
      <point x="1163" y="330"/>
      <point x="937" y="0" type="curve"/>
      <point x="1405" y="0" type="line" smooth="yes"/>
      <point x="1437" y="0"/>
      <point x="1453" y="34"/>
      <point x="1453" y="68" type="curve" smooth="yes"/>
      <point x="1453" y="102"/>
      <point x="1437" y="135"/>
      <point x="1405" y="135" type="curve" smooth="yes"/>
      <point x="1132" y="135" type="line"/>
      <point x="1351" y="383"/>
      <point x="1524" y="675"/>
      <point x="1524" y="924" type="curve" smooth="yes"/>
      <point x="1524" y="1231"/>
      <point x="1378" y="1460"/>
      <point x="850" y="1460" type="curve" smooth="yes"/>
      <point x="375" y="1460"/>
      <point x="177" y="1227"/>
      <point x="177" y="924" type="curve" smooth="yes"/>
      <point x="177" y="675"/>
      <point x="350" y="382"/>
      <point x="568" y="135" type="curve"/>
      <point x="296" y="135" type="line" smooth="yes"/>
      <point x="263" y="135"/>
      <point x="248" y="102"/>
      <point x="248" y="68" type="curve" smooth="yes"/>
      <point x="248" y="34"/>
      <point x="263" y="0"/>
    </contour>
  </outline>
</glyph>
<glyph name="emptyset" format="1">
  <advance width="1745"/>
  <unicode hex="2205"/>
  <outline>
    <contour>
      <point x="418" y="2" type="curve" smooth="yes"/>
      <point x="448" y="-1"/>
      <point x="474" y="34"/>
      <point x="497" y="64" type="curve" smooth="yes"/>
      <point x="1379" y="1214" type="line"/>
      <point x="1394" y="1236"/>
      <point x="1415" y="1262"/>
      <point x="1418" y="1283" type="curve" smooth="yes"/>
      <point x="1421" y="1314"/>
      <point x="1399" y="1344"/>
      <point x="1369" y="1348" type="curve" smooth="yes"/>
      <point x="1349" y="1350"/>
      <point x="1329" y="1343"/>
      <point x="1311" y="1319" type="curve" smooth="yes"/>
      <point x="404" y="132" type="line"/>
      <point x="388" y="114"/>
      <point x="368" y="84"/>
      <point x="365" y="69" type="curve" smooth="yes"/>
      <point x="362" y="38"/>
      <point x="385" y="7"/>
    </contour>
    <contour>
      <point x="874" y="198" type="curve" smooth="yes"/>
      <point x="592" y="198"/>
      <point x="388" y="410"/>
      <point x="388" y="674" type="curve" smooth="yes"/>
      <point x="388" y="946"/>
      <point x="600" y="1151"/>
      <point x="874" y="1151" type="curve" smooth="yes"/>
      <point x="1154" y="1151"/>
      <point x="1358" y="938"/>
      <point x="1358" y="674" type="curve" smooth="yes"/>
      <point x="1358" y="395"/>
      <point x="1136" y="198"/>
    </contour>
    <contour>
      <point x="874" y="97" type="curve" smooth="yes"/>
      <point x="1206" y="97"/>
      <point x="1478" y="357"/>
      <point x="1478" y="674" type="curve" smooth="yes"/>
      <point x="1478" y="1008"/>
      <point x="1192" y="1256"/>
      <point x="874" y="1256" type="curve" smooth="yes"/>
      <point x="526" y="1256"/>
      <point x="267" y="982"/>
      <point x="267" y="674" type="curve" smooth="yes"/>
      <point x="267" y="344"/>
      <point x="550" y="97"/>
    </contour>
  </outline>
</glyph>
<glyph name="minus" format="1">
  <advance width="693"/>
  <unicode hex="2212"/>
  <outline>
    <contour>
      <point x="103" y="458" type="curve" smooth="yes"/>
      <point x="587" y="458" type="line" smooth="yes"/>
      <point x="633" y="458"/>
      <point x="656" y="492"/>
      <point x="656" y="527" type="curve" smooth="yes"/>
      <point x="656" y="561"/>
      <point x="633" y="597"/>
      <point x="587" y="597" type="curve" smooth="yes"/>
      <point x="103" y="597" type="line" smooth="yes"/>
      <point x="55" y="597"/>
      <point x="33" y="562"/>
      <point x="33" y="528" type="curve" smooth="yes"/>
      <point x="33" y="493"/>
      <point x="56" y="458"/>
    </contour>
  </outline>
</glyph>
<glyph name="infinity" format="1">
  <advance width="1604"/>
  <unicode hex="221E"/>
  <outline>
    <contour>
      <point x="414" y="266" type="curve" smooth="yes"/>
      <point x="582" y="266"/>
      <point x="695" y="386"/>
      <point x="804" y="511" type="curve"/>
      <point x="947" y="347"/>
      <point x="1054" y="266"/>
      <point x="1183" y="266" type="curve" smooth="yes"/>
      <point x="1346" y="266"/>
      <point x="1500" y="392"/>
      <point x="1500" y="595" type="curve" smooth="yes"/>
      <point x="1500" y="597" type="line" smooth="yes"/>
      <point x="1500" y="784"/>
      <point x="1374" y="912"/>
      <point x="1194" y="912" type="curve" smooth="yes"/>
      <point x="1021" y="912"/>
      <point x="916" y="784"/>
      <point x="811" y="666" type="curve"/>
      <point x="702" y="797"/>
      <point x="584" y="912"/>
      <point x="429" y="912" type="curve" smooth="yes"/>
      <point x="243" y="912"/>
      <point x="103" y="774"/>
      <point x="103" y="586" type="curve" smooth="yes"/>
      <point x="103" y="404"/>
      <point x="248" y="266"/>
    </contour>
    <contour>
      <point x="427" y="363" type="line"/>
      <point x="293" y="363"/>
      <point x="210" y="465"/>
      <point x="210" y="588" type="curve" smooth="yes"/>
      <point x="210" y="712"/>
      <point x="285" y="818"/>
      <point x="414" y="818" type="curve" smooth="yes"/>
      <point x="563" y="818"/>
      <point x="658" y="695"/>
      <point x="749" y="583" type="curve"/>
      <point x="664" y="493"/>
      <point x="562" y="363"/>
      <point x="429" y="363" type="curve" smooth="yes"/>
    </contour>
    <contour>
      <point x="1191" y="363" type="curve" smooth="yes"/>
      <point x="1080" y="363"/>
      <point x="1000" y="440"/>
      <point x="864" y="592" type="curve"/>
      <point x="936" y="667"/>
      <point x="1046" y="818"/>
      <point x="1185" y="818" type="curve" smooth="yes"/>
      <point x="1188" y="818" type="line" smooth="yes"/>
      <point x="1305" y="818"/>
      <point x="1396" y="731"/>
      <point x="1396" y="588" type="curve" smooth="yes"/>
      <point x="1396" y="478"/>
      <point x="1322" y="363"/>
    </contour>
  </outline>
</glyph>
<glyph name="greaterequal" format="1">
  <advance width="1173"/>
  <unicode hex="2265"/>
  <outline>
    <contour>
      <point x="158" y="227" type="curve" smooth="yes"/>
      <point x="167" y="227"/>
      <point x="176" y="229"/>
      <point x="186" y="233" type="curve"/>
      <point x="1074" y="612" type="line" smooth="yes"/>
      <point x="1117" y="631"/>
      <point x="1136" y="659"/>
      <point x="1136" y="689" type="curve" smooth="yes"/>
      <point x="1136" y="720"/>
      <point x="1117" y="748"/>
      <point x="1076" y="765" type="curve"/>
      <point x="184" y="1162" type="line" smooth="yes"/>
      <point x="174" y="1166"/>
      <point x="164" y="1168"/>
      <point x="155" y="1168" type="curve" smooth="yes"/>
      <point x="119" y="1168"/>
      <point x="93" y="1136"/>
      <point x="93" y="1103" type="curve" smooth="yes"/>
      <point x="93" y="1080"/>
      <point x="105" y="1060"/>
      <point x="131" y="1048" type="curve" smooth="yes"/>
      <point x="937" y="690" type="line"/>
      <point x="133" y="351" type="line" smooth="yes"/>
      <point x="106" y="339"/>
      <point x="94" y="318"/>
      <point x="94" y="295" type="curve" smooth="yes"/>
      <point x="94" y="260"/>
      <point x="122" y="227"/>
    </contour>
    <contour>
      <point x="162" y="12" type="curve" smooth="yes"/>
      <point x="1010" y="12" type="line" smooth="yes"/>
      <point x="1047" y="12"/>
      <point x="1065" y="39"/>
      <point x="1065" y="67" type="curve" smooth="yes"/>
      <point x="1065" y="94"/>
      <point x="1047" y="121"/>
      <point x="1010" y="121" type="curve" smooth="yes"/>
      <point x="162" y="121" type="line" smooth="yes"/>
      <point x="127" y="121"/>
      <point x="108" y="95"/>
      <point x="108" y="67" type="curve" smooth="yes"/>
      <point x="108" y="40"/>
      <point x="127" y="12"/>
    </contour>
  </outline>
</glyph>
<glyph name="caron.alt" format="1">
  <advance width="599"/>
  <outline>
    <contour>
      <point x="5" y="309" type="move" name="_caron.alt"/>
    </contour>
    <contour>
      <point x="290" y="304" type="curve"/>
      <point x="313" y="304" type="line"/>
      <point x="342" y="303"/>
      <point x="358" y="315"/>
      <point x="369" y="347" type="curve" smooth="yes"/>
      <point x="499" y="738" type="line" smooth="yes"/>
      <point x="504" y="752"/>
      <point x="507" y="791"/>
      <point x="465" y="794" type="curve"/>
      <point x="403" y="794" type="line"/>
      <point x="371" y="793"/>
      <point x="338" y="785"/>
      <point x="330" y="738" type="curve" smooth="yes"/>
      <point x="266" y="347" type="line" smooth="yes"/>
      <point x="264" y="335"/>
      <point x="262" y="305"/>
    </contour>
  </outline>
</glyph>
